<svg xmlns="http://www.w3.org/2000/svg" aria-hidden="true" overflow="hidden" style="position:absolute;width:0;height:0">
  <defs>
    <symbol id="envelope" viewBox="0 0 43 32">
      <path d="M38.67 0H4a4 4 0 0 0-4 4v24a4 4 0 0 0 4 4h34.67a4 4 0 0 0 4-4V4a4 4 0 0 0-4-4zm0 2.67c.2 0 .38.04.54.1h-.01L21.33 18.24 3.47 2.77c.15-.06.33-.1.52-.1h34.68zm0 26.66H4c-.74 0-1.33-.6-1.33-1.33V5.6l17.78 15.41a1.33 1.33 0 0 0 1.77 0L40 5.6V28c0 .74-.6 1.33-1.33 1.33z"/>
    </symbol>
    <symbol id="facebook" viewBox="0 0 32 32">
      <path d="M21.33 5.31h2.93V.22C23.74.16 22.02 0 20 0c-4.22 0-7.1 2.66-7.1 7.52V12H8.26v5.68h4.64V32h5.7V17.7h4.46l.7-5.7h-5.17V8.08c0-1.65.45-2.77 2.74-2.77z"/>
    </symbol>
    <symbol id="instagram" viewBox="0 0 32 32">
      <path d="M31.97 9.4c-.03-1.4-.3-2.73-.76-3.96l.02.08a7.86 7.86 0 0 0-1.85-2.83A7.95 7.95 0 0 0 26.54.85 11.48 11.48 0 0 0 22.67.1h-.01a104.86 104.86 0 0 0-6.69-.1h.1c-4.36 0-4.9.02-6.6.1C7.76.16 6.6.45 5.58.83A8.04 8.04 0 0 0 2.75 2.7 8 8 0 0 0 .92 5.47l-.02.05A11.47 11.47 0 0 0 .16 9.4a104.86 104.86 0 0 0-.1 6.69V16c0 4.35 0 4.9.08 6.6.03 1.4.3 2.73.78 3.96l-.02-.08a7.78 7.78 0 0 0 1.85 2.83 8 8 0 0 0 2.78 1.84l.05.02c1.01.38 2.18.65 3.88.73 1.7.08 2.24.1 6.59.1s4.9-.02 6.6-.1c1.4-.02 2.73-.29 3.96-.76l-.08.03a8.24 8.24 0 0 0 4.67-4.64l.02-.05c.38-1.02.67-2.18.73-3.89.08-1.7.1-2.24.1-6.59 0-4.34 0-4.88-.08-6.6zm-2.88 13.08a8.54 8.54 0 0 1-.55 2.96 5.34 5.34 0 0 1-3 3.03l-.04.01c-.56.22-1.42.48-2.97.54-1.68.08-2.2.1-6.47.1a106.97 106.97 0 0 1-6.7-.1h.24a8.45 8.45 0 0 1-2.96-.54 4.96 4.96 0 0 1-1.84-1.2c-.52-.5-.93-1.1-1.19-1.79l-.01-.03a8.64 8.64 0 0 1-.54-2.98 108.65 108.65 0 0 1-.1-6.55v.09c0-4.28.02-4.79.1-6.47a8.6 8.6 0 0 1 .54-2.97c.26-.7.66-1.32 1.2-1.83.5-.52 1.12-.93 1.8-1.19h.04c.56-.23 1.4-.49 2.98-.55 1.68-.08 2.19-.1 6.44-.1 4.3 0 4.8 0 6.47.1a8.6 8.6 0 0 1 2.97.54c.7.26 1.33.66 1.84 1.2.53.51.95 1.14 1.2 1.83.21.57.48 1.42.55 2.97.08 1.68.1 2.2.1 6.47s-.02 4.76-.1 6.46z"/>
      <path d="M16.06 7.78a8.22 8.22 0 1 0 0 16.44 8.22 8.22 0 1 0 0-16.44zm0 13.55a5.33 5.33 0 1 1 0-10.66 5.33 5.33 0 1 1 0 10.66zM26.53 7.46a1.92 1.92 0 0 1-3.84 0 1.92 1.92 0 0 1 3.84 0z"/>
    </symbol>
    <symbol id="linkedin" viewBox="0 0 32 32">
      <path d="M32 32V20.26c0-5.73-1.23-10.16-7.95-10.16h-.26a6.96 6.96 0 0 0-6 3.42l-.01.03h-.1v-2.91H11.3V32h6.64V21.42c0-2.78.53-5.49 3.97-5.49 3.4 0 3.45 3.19 3.45 5.67V32H32zM.53 10.64h6.64V32H.53V10.64zM3.84 0A3.84 3.84 0 0 0 0 3.84v.02a3.87 3.87 0 0 0 3.84 3.87 3.87 3.87 0 0 0 0-7.73z"/>
    </symbol>
    <symbol id="logo-fifth" viewBox="0 0 57 32">
      <path d="M14.27 23.86c.13.15.2.33.2.52a.73.73 0 0 1-.08.36.89.89 0 0 1-.22.3c-.26.17-.57.26-.89.24h-1.55v-3.3h1.52l.08-.01c.29 0 .55.09.77.23.17.13.29.35.29.6v.02a.7.7 0 0 1-.18.5.83.83 0 0 1-.46.26c.2.03.39.13.52.28zm-1.81-.5h.64c.15.01.3-.03.42-.1a.32.32 0 0 0 .1-.15.33.33 0 0 0 .03-.18.35.35 0 0 0-.02-.18.42.42 0 0 0-.1-.14.66.66 0 0 0-.44-.11h-.64v.86zm1.12 1.27c.1-.08.15-.2.15-.33v-.03a.42.42 0 0 0-.16-.32.71.71 0 0 0-.39-.12h-.73v.9h.7c.15.02.3-.02.42-.1zm3.8.65-.85-1.3h-.32v1.3h-.72v-3.3h1.37l.1-.01c.33 0 .63.1.87.29a.99.99 0 0 1 .1 1.36c-.17.18-.4.3-.66.34l.9 1.32h-.8zm-1.17-1.74h.6c.4 0 .61-.16.61-.5v-.02a.5.5 0 0 0-.16-.35.67.67 0 0 0-.4-.14h-.66v1zm5.13 1.07h-1.45l-.25.67h-.77l1.34-3.27h.82l1.32 3.27h-.76l-.26-.67zm-.2-.5-.53-1.39-.52 1.4h1.06zm5.16 1.17h-.72l-1.61-2.25v2.24h-.72v-3.3h.72l1.62 2.27v-2.26h.72v3.3zm4.12-.8c-.15.26-.38.46-.66.6-.28.12-.61.2-.96.2h-1.33v-3.3h1.33c.35 0 .68.07.98.2h-.02c.28.13.5.33.65.58a1.77 1.77 0 0 1 0 1.73zm-.83-.07a1.14 1.14 0 0 0 0-1.58 1.32 1.32 0 0 0-.9-.27h-.5v2.13h.5c.33.02.65-.08.9-.28zm-7.8-20.8s9.3 3.21 9.1 7.87v7.87s-9.29-3.22-9.1-7.87V3.6zm17.39 13.9a13.31 13.31 0 0 1 5.85-2h.06v-2.46a12.02 12.02 0 0 0-5.89 4.42l-.02.04z"/>
      <path d="M38.12 18.24A12.38 12.38 0 0 1 45 12.56l.09-.03v-7.1s-13.25 4.59-12.97 11.21v11.2s.59-.2 1.52-.59c0-.36 0-.72.05-1.08a11.36 11.36 0 0 1 4.4-7.9l.03-.03z"/>
      <path d="M36.86 22.4c.07-.77.23-1.54.47-2.29a10.32 10.32 0 0 0-2.8 6.76v.01c.74-.33 1.62-.74 2.54-1.23a10.7 10.7 0 0 1-.2-3.25zm.53.05a10.12 10.12 0 0 0 .17 3v-.07c3.61-1.98 7.68-5.04 7.52-8.75v-.32a12.36 12.36 0 0 0-6.9 2.96l.02-.01c-.42.93-.7 2.01-.8 3.15v.04z"/>
    </symbol>
    <symbol id="logo-first" viewBox="0 0 57 32">
      <path d="M20.27 3.73 24 7.27h-6.93v17.16H35.2v-6.56l3.73 3.53V3.73H20.27zm14.77 13.73L24.44 7.42h10.6v10.03zm-3.3 4.46h-11.8V10.39h.83v10.76h10.97v.78zm-9.01 4.8-.44.9-.44-.9h-.36l.64 1.2v.7h.32v-.7l.64-1.2h-.37zm.54 1.9.15-.44h.74l.16.43h.34l-.72-1.89h-.3l-.71 1.9h.35zm.52-1.5.28.79h-.55l.27-.79zm1.74.75a.43.43 0 0 0-.07.23c0 .16.05.3.17.4.1.1.26.14.45.14s.35-.05.48-.15l.1.12h.38l-.28-.32c.1-.15.16-.34.16-.58h-.27c0 .13-.03.25-.09.35l-.36-.43.13-.1c.1-.06.16-.13.2-.2a.42.42 0 0 0-.07-.52.48.48 0 0 0-.33-.11h-.04a.5.5 0 0 0-.34.12.46.46 0 0 0-.14.36c0 .06.02.12.05.19s.08.14.15.23c-.1.08-.2.16-.28.27zm.85.41a.48.48 0 0 1-.3.11h-.01a.3.3 0 0 1-.2-.08.28.28 0 0 1-.1-.2v-.01c0-.11.06-.2.17-.28l.03-.03.41.5zm-.33-.84c-.1-.1-.14-.2-.14-.27s.02-.12.06-.16a.19.19 0 0 1 .13-.06h.01c.06 0 .1.02.15.05.03.03.05.08.05.13 0 .07-.03.13-.08.18l-.04.03-.14.1zm3.08 1.04c.13-.12.2-.28.23-.48h-.33a.52.52 0 0 1-.12.29c-.07.06-.16.08-.3.08h-.01a.37.37 0 0 1-.3-.16.82.82 0 0 1-.12-.47v-.16c0-.2.04-.36.12-.46a.4.4 0 0 1 .33-.16c.12 0 .21.03.28.1s.1.15.12.28h.33a.72.72 0 0 0-.22-.48.73.73 0 0 0-.47-.17h-.04c-.16 0-.3.04-.41.11a.73.73 0 0 0-.27.32c-.07.13-.1.3-.1.47v.18c0 .17.03.33.1.46s.15.23.27.3c.11.08.25.11.4.11.2 0 .38-.05.51-.17zm1.94-.27c.06-.15.1-.3.1-.5v-.1c0-.19-.04-.35-.1-.48a.73.73 0 0 0-.67-.44h-.03c-.15 0-.28.04-.4.12s-.21.18-.28.32c-.06.14-.1.3-.1.5v.1c0 .18.04.34.1.48s.16.24.28.32a.81.81 0 0 0 .83 0 .75.75 0 0 0 .27-.32zm-.36-1.07c.08.1.13.27.13.48v.1c0 .21-.04.37-.12.48a.38.38 0 0 1-.32.17h-.04a.4.4 0 0 1-.32-.17.82.82 0 0 1-.12-.49v-.1c0-.2.04-.36.12-.48a.39.39 0 0 1 .34-.16.4.4 0 0 1 .33.16z"/>
    </symbol>
    <symbol id="logo-fourth" viewBox="0 0 57 32">
      <path d="M12.88 11.25c-1.28 0-2.32.93-2.32 2.06 0 1.14 1.04 2.06 2.31 2.06 1.29 0 2.33-.92 2.33-2.06 0-1.13-1.04-2.06-2.32-2.06zm17.1-.65A5.66 5.66 0 0 0 28 6.39a7.12 7.12 0 0 0-4.68-1.75h-.05c-1.78 0-3.48.63-4.74 1.75a5.64 5.64 0 0 0-1.97 4.2v8.71s13.41-1.33 13.41-8.7zM5.86 22.16c0 1.1.5 2.15 1.37 2.93a4.96 4.96 0 0 0 3.26 1.21h.03c1.24 0 2.42-.43 3.3-1.21a3.93 3.93 0 0 0 1.37-2.93v-6.05s-9.33.92-9.33 6.05zm4.66 1.08a1.3 1.3 0 0 1-.68-.18c-.2-.11-.35-.28-.44-.48a.96.96 0 0 1-.07-.64c.04-.2.15-.4.33-.55.17-.15.38-.25.62-.3.24-.03.48-.01.7.07s.42.22.56.4a1 1 0 0 1-.15 1.37c-.22.2-.52.32-.84.32h-.03zm8.53-1.94v2.28h-.47V21.3h.47zm.9.97v.37h-1.03v-.37h1.03zm.1-.97v.37h-1.13v-.37h1.14zm2.15 1.08v.11c0 .18-.02.33-.07.47a1.1 1.1 0 0 1-.2.35.96.96 0 0 1-1.09.22.88.88 0 0 1-.3-.22.88.88 0 0 1-.2-.35 1.41 1.41 0 0 1-.07-.44v-.13c0-.18.02-.33.07-.47s.1-.26.2-.35c.08-.1.18-.17.3-.22a.98.98 0 0 1 .4-.08c.42 0 .77.27.89.64v.01c.05.14.07.3.07.46zm-.47.11v-.1c0-.13-.01-.24-.03-.33a.68.68 0 0 0-.1-.23.42.42 0 0 0-.35-.19h-.04a.43.43 0 0 0-.35.19l-.09.22v.01l-.03.3v.13c0 .12 0 .23.03.32.03.1.05.17.1.24.04.06.1.1.15.14a.5.5 0 0 0 .22.05.4.4 0 0 0 .2-.06.43.43 0 0 0 .16-.13.67.67 0 0 0 .1-.24c.02-.09.03-.2.03-.32zm2 .5v-.02a.3.3 0 0 0-.02-.1.2.2 0 0 0-.07-.09.6.6 0 0 0-.13-.08 1.72 1.72 0 0 0-.22-.08h-.02L23 22.5a1.2 1.2 0 0 1-.24-.15.6.6 0 0 1-.16-.19.53.53 0 0 1-.07-.25v-.01c0-.1.02-.18.07-.26.04-.07.1-.14.17-.2s.16-.1.27-.12a1.17 1.17 0 0 1 .78.04c.12.06.21.14.28.25s.11.22.11.36h-.47v-.01a.35.35 0 0 0-.04-.17.3.3 0 0 0-.12-.12.44.44 0 0 0-.2-.04h-.03a.48.48 0 0 0-.19.04.27.27 0 0 0-.12.1.23.23 0 0 0-.04.13c0 .04 0 .08.03.11l.09.09.14.08.2.07c.11.03.23.08.32.12.1.05.17.1.24.16.11.11.19.27.19.44 0 .1-.02.2-.06.27a.62.62 0 0 1-.17.2.9.9 0 0 1-.26.13 1.27 1.27 0 0 1-.97-.14.67.67 0 0 1-.3-.55v-.02h.48v.02c0 .11.05.22.13.29a.3.3 0 0 0 .14.06l.18.02h.02c.07 0 .13-.01.19-.03a.25.25 0 0 0 .15-.23zm1.8-1.69v2.28h-.47V21.3h.46zm.7 0v.37h-1.86v-.37h1.86zm1.8 1.91v.37h-1.21v-.37h1.2zm-1.06-1.9v2.27h-.47V21.3h.47zm.9.92v.36h-1.06v-.36h1.06zm.15-.93v.37h-1.2v-.37h1.2zm.27 0h.86c.17 0 .32.03.44.08a.7.7 0 0 1 .3.23.76.76 0 0 1 .03.69.51.51 0 0 1-.17.21.79.79 0 0 1-.27.14l-.14.08h-.74v-.36h.56c.07 0 .14-.02.2-.05h-.01c.05-.02.1-.07.12-.12a.37.37 0 0 0 .05-.17V22a.4.4 0 0 0-.04-.18.27.27 0 0 0-.13-.12.45.45 0 0 0-.2-.04h-.38v1.9h-.48V21.3zm1.28 2.28-.52-1.01h.5l.52.99v.02h-.5zm2.46-.81h-.57v-.37h.57c.1 0 .16-.02.22-.04a.3.3 0 0 0 .12-.13.37.37 0 0 0 .05-.17.45.45 0 0 0-.05-.2.32.32 0 0 0-.12-.14.4.4 0 0 0-.2-.05h-.43v1.9h-.47V21.3h.88a1 1 0 0 1 .46.1c.24.11.4.35.4.62v.03a.7.7 0 0 1-.1.38.6.6 0 0 1-.3.25c-.12.06-.27.09-.46.09zm2.7.44v.37h-1.21v-.37h1.21zm-1.05-1.9v2.27h-.47V21.3h.47zm.9.92v.36h-1.06v-.36h1.06zm.15-.93v.37h-1.21v-.37h1.21zm1.32 0v2.28h-.47V21.3h.47zm.7 0v.37H34.9v-.37h1.85zm1.8 1.91v.37h-1.21v-.37h1.21zm-1.06-1.9v2.27h-.47V21.3h.47zm.9.92v.36h-1.05v-.36h1.05zm.16-.93v.37h-1.21v-.37h1.2zm.27 0h.85c.18 0 .32.03.45.08s.22.13.29.23c.06.1.1.23.1.37 0 .13-.02.23-.06.32a.57.57 0 0 1-.18.22.81.81 0 0 1-.26.13l-.14.08h-.74v-.36h.56a.5.5 0 0 0 .2-.05h-.01c.05-.02.1-.07.12-.12a.37.37 0 0 0 .04-.17v-.01a.41.41 0 0 0-.04-.19.27.27 0 0 0-.12-.12.45.45 0 0 0-.2-.04h-.39v1.9h-.47V21.3zm1.28 2.28-.53-1.01h.5l.52.99v.02h-.5zm1.95-.6a.3.3 0 0 0-.01-.1.2.2 0 0 0-.07-.1.6.6 0 0 0-.13-.08 1.72 1.72 0 0 0-.22-.08h-.02l-.29-.12a.82.82 0 0 1-.24-.15.6.6 0 0 1-.16-.19.53.53 0 0 1-.06-.24v-.02c0-.1.02-.18.06-.26.04-.07.1-.14.17-.2s.16-.1.27-.12a1.17 1.17 0 0 1 .78.04c.12.06.22.14.28.25s.11.23.11.36h-.46a.35.35 0 0 0-.05-.17.3.3 0 0 0-.12-.12.44.44 0 0 0-.2-.05h-.03a.48.48 0 0 0-.19.04.27.27 0 0 0-.12.1.23.23 0 0 0-.04.13c0 .04.01.08.03.11l.09.09.14.08.2.07c.12.03.23.08.32.12.1.05.18.1.24.16a.6.6 0 0 1 .14.71.62.62 0 0 1-.17.2.93.93 0 0 1-.26.13 1.25 1.25 0 0 1-.98-.14.67.67 0 0 1-.29-.55v-.02h.48c0 .08 0 .14.03.19s.05.08.1.11a.2.2 0 0 0 .13.07l.19.02h.02c.06 0 .13-.01.18-.03.1-.04.16-.13.16-.23z"/>
    </symbol>
    <symbol id="logo-second" viewBox="0 0 57 32">
      <path d="M26.73 3.16h-1.38.03c-1.94.11-3.84.6-5.6 1.44l-.23.1v11.82l.54-.18c1.73-.63 3.72-1 5.8-1.02h.01v1.55l-.56.01h-.05c-2.69.15-5.17.9-7.37 2.1l.1-.04V3.79a15.5 15.5 0 0 1 4.04-1.67l.1-.02a15.6 15.6 0 0 1 3.91-.5h.24c.97 0 1.91.13 2.81.36l-.08-.01v1.53c-.54-.14-1.19-.24-1.85-.29h-.07l-.4-.03zm2.68 1.56a16.44 16.44 0 0 0 5.28-.51l-.12.02c1.5-.38 2.82-.9 4.04-1.58l-.08.04v14.88c-1.2.7-2.58 1.29-4.05 1.66l-.1.03c-1.29.32-2.6.5-3.92.5h-.09c-1.02 0-2.01-.13-2.96-.37l.08.02V4.44c.56.13 1.21.23 1.89.28h.03zm7.58.12-.54.18a17.9 17.9 0 0 1-7.02 1h.05l-.44-.03v12.14l.37.04a14.35 14.35 0 0 0 4.69-.43l-.1.01a14.4 14.4 0 0 0 2.84-1.03l-.09.04.24-.11V4.85zM19.06 24.11a.8.8 0 0 0-.57-.24h-.03a.97.97 0 0 0-.35.07.8.8 0 0 0-.5.78v2.03a.85.85 0 0 0 .28.68c.08.07.17.12.27.14s.2.05.3.05c.47-.01.85-.4.85-.86v-.22h-.54v.18c0 .06 0 .12-.02.18a.31.31 0 0 1-.08.11.37.37 0 0 1-.22.08h-.03a.27.27 0 0 1-.22-.1.48.48 0 0 1-.07-.27v-1.9c0-.1.02-.2.07-.3a.27.27 0 0 1 .22-.12h.04c.1 0 .17.05.23.11.05.08.09.17.09.27v.18h.52v-.21a.96.96 0 0 0-.24-.64zm3.14-.02a.94.94 0 0 0-.92-.16c-.1.03-.2.09-.27.16a.89.89 0 0 0-.28.68v1.93c0 .14.02.28.07.4a.88.88 0 0 0 .49.45.9.9 0 0 0 .63 0 .83.83 0 0 0 .56-.79v-2.03a.88.88 0 0 0-.28-.64zm-.24 2.61v.03c0 .1-.04.2-.11.26a.39.39 0 0 1-.5 0 .34.34 0 0 1-.1-.26v-2c0-.1.04-.18.1-.25a.39.39 0 0 1 .5 0c.07.07.1.16.1.26v1.96zm4.37.87V23.9h-.51l-.67 1.95-.68-1.95h-.5v3.68h.52v-2.24h.01l.51 1.58h.27l.52-1.58v2.24h.53zm2.98-3.41a.68.68 0 0 0-.3-.2 1 1 0 0 0-.36-.06h-.79v3.67h.52v-1.44h.27c.16.01.32-.02.47-.1a.88.88 0 0 0 .4-.59 2.51 2.51 0 0 0-.02-.96v.02a.79.79 0 0 0-.19-.35zm-.26 1.12a.6.6 0 0 1-.06.19.25.25 0 0 1-.13.12.52.52 0 0 1-.23.06h-.26v-1.26h.29a.5.5 0 0 1 .22.05c.05.03.1.08.12.14.03.06.05.13.05.2v.5zm2.74-1.38h-.43l-.8 3.67h.52l.16-.78h.7l.17.78h.51l-.82-3.67zm-.48 2.38.26-1.33.26 1.33h-.52zm3.86-.17-.8-2.21h-.5v3.67h.53v-2.2l.8 2.2h.5V23.9h-.53v2.22zm3.2-2.21-.42 1.46-.44-1.46h-.55l.72 2.12v1.55h.53v-1.55l.72-2.12h-.56zM17.6 28.6h.25v.72h.17v-.71h.25v-.15h-.67v.15zm2.12-.14-.33.86h.18l.07-.2h.34l.07.2h.19l-.34-.86h-.18zm-.02.52.1-.32.12.32h-.22zm2.11.02h.2v.11a.33.33 0 0 1-.2.07h-.01a.21.21 0 0 1-.17-.08.36.36 0 0 1-.06-.2v-.02c0-.19.08-.28.24-.28h.02a.2.2 0 0 1 .18.13l.17-.03c-.04-.17-.16-.25-.37-.25h-.01a.48.48 0 0 0-.29.1.41.41 0 0 0-.12.34c0 .11.03.23.11.32.08.07.18.12.3.12h.03c.14 0 .26-.05.36-.14v-.33h-.37V29zm2.15-.54h-.17v.86h.6v-.15h-.43v-.7zm1.81 0h-.17v.86h.17v-.86zm1.77.57-.35-.57h-.17v.86h.16v-.56l.35.56h.17v-.86h-.16v.57zm1.6-.09h.43v-.14h-.43v-.2h.45v-.14h-.63v.86h.66v-.15h-.48v-.23zm3.88-.14h-.34v-.34h-.17v.86h.17v-.38h.34v.38h.17v-.86h-.17v.34zm1.6.14h.44v-.14h-.43v-.2h.46v-.14h-.63v.86h.64v-.15h-.47v-.23zm2.2 0c.14-.02.21-.1.21-.24v-.02a.2.2 0 0 0-.08-.16.48.48 0 0 0-.22-.06h-.39v.86h.17v-.36h.03c.04 0 .08 0 .11.02s.05.04.06.07l.2.26h.2l-.11-.16a.56.56 0 0 0-.19-.21zm-.18-.11h-.13v-.22h.19c.05 0 .1 0 .13.02a.1.1 0 0 1 0 .18.47.47 0 0 1-.15.02h-.03zm1.82.11h.43v-.14h-.43v-.2h.46v-.14h-.63v.86h.64v-.15h-.47v-.23z"/>
    </symbol>
    <symbol id="logo-sixth" viewBox="0 0 57 32">
      <path d="M28.5 14.61a1.56 1.56 0 0 1-.33-1.06v-1.53c0-.47.1-.83.32-1.07s.59-.37 1.1-.37c.49 0 .84.1 1.04.31.23.27.34.6.31.92v.36h-.87v-.36c0-.13 0-.24-.03-.36a.35.35 0 0 0-.12-.21.5.5 0 0 0-.28-.09h-.07a.53.53 0 0 0-.3.1.42.42 0 0 0-.15.23 2.3 2.3 0 0 0-.03.37v1.87c-.02.18.02.36.1.53a.44.44 0 0 0 .41.15h.04c.1 0 .2-.03.27-.08a.37.37 0 0 0 .13-.23c.02-.12.03-.25.03-.37v-.39h.87v.35c.02.34-.08.68-.3.97-.2.22-.55.34-1.05.34s-.88-.13-1.1-.38zm3.64.03c-.22-.25-.33-.6-.33-1.06v-1.61c0-.46.1-.8.33-1.04.22-.24.59-.35 1.1-.35.52 0 .89.11 1.1.35.23.23.34.58.34 1.04v1.61c0 .46-.1.8-.33 1.05-.23.24-.59.36-1.1.36s-.9-.12-1.11-.36zm1.51-.4a.9.9 0 0 0 .11-.48V11.8a.86.86 0 0 0-.1-.47.41.41 0 0 0-.18-.13.48.48 0 0 0-.23-.03h-.07a.48.48 0 0 0-.17.03.43.43 0 0 0-.18.13.94.94 0 0 0-.1.44v2.02a.9.9 0 0 0 .1.48.62.62 0 0 0 .64.11.57.57 0 0 0 .18-.11v-.02zm2.08-3.62h.95l.7 3 .73-3h.92l.09 4.31h-.68l-.07-2.99-.7 3h-.55l-.73-3.01-.06 3h-.69l.09-4.3zm4.45 0h1.46c.85 0 1.27.42 1.27 1.23 0 .78-.44 1.17-1.33 1.17h-.5v1.91h-.9v-4.3zm1.25 1.85c.09 0 .18 0 .27-.02a.77.77 0 0 0 .23-.12.7.7 0 0 0 .13-.48c0-.14-.01-.27-.04-.4a.36.36 0 0 0-.18-.2.96.96 0 0 0-.37-.07h-.39v1.3h.35zm2.78-1.85h.98l1 4.31h-.85l-.2-.99h-.86l-.2 1h-.86l1-4.32zm.84 2.82-.34-1.8-.34 1.8h.68zM47 10.62h.63l1.21 2.46v-2.45h.76v4.3H49l-1.22-2.56v2.56H47v-4.3zm4.36 2.67-1.01-2.66h.85l.61 1.7.58-1.7h.83l-1 2.67v1.63h-.87V13.3zm-21.47 3.53v.22h-.74v1.75h-.3v-1.75h-.75v-.22h1.8zm2.32 1.98h-.24a.1.1 0 0 1-.07-.03.1.1 0 0 1-.04-.04l-.21-.47h-1.03l-.2.47-.04.05a.1.1 0 0 1-.06.02h-.25l.9-1.97h.33l.9 1.96zm-1.5-.74h.85l-.36-.8a1.33 1.33 0 0 1-.06-.18v-.01l-.04.1-.03.09-.36.8zm3.06.54h.17c.1 0 .2-.03.29-.06h-.01l.12-.05v-.44h-.36c-.02 0-.04 0-.05-.02l-.01-.01-.01-.02v-.15h.7v.75c-.17.11-.38.18-.6.2a1.46 1.46 0 0 1-.74-.06h.01a.96.96 0 0 1-.59-.51 1 1 0 0 1-.09-.41v-.04a.9.9 0 0 1 .32-.7c.1-.08.23-.15.36-.2a1.5 1.5 0 0 1 .75-.05h-.01c.15.02.28.06.4.13l.16.1-.1.12c0 .01-.01.02-.03.02a.1.1 0 0 1-.03.02l-.06-.02a1.12 1.12 0 0 0-.58-.16h-.04a.93.93 0 0 0-.34.06.74.74 0 0 0-.43.39.94.94 0 0 0 0 .66.78.78 0 0 0 .8.45zm2.9-.04h.98v.23h-1.3v-1.97h.32v1.75zm2 .24h-.3v-1.98h.3v1.98zm1.16-1.97c.02 0 .04.02.05.03l1.32 1.5V16.8h.27v1.99h-.15c-.03 0-.05 0-.07-.02a.18.18 0 0 1-.05-.03l-1.32-1.5v1.55h-.26v-1.98h.21zm3.93-.01v.2h-1.1v.67h.89v.2h-.9v.68h1.1v.21h-1.41v-1.96h1.42zM11.29 4.62l13.76 3.37v11.82l-13.76-3.37V4.62zM10.4 3.6v13.41l15.51 3.81V7.42L10.4 3.6z"/>
      <path d="M18.72 27.04 3.2 23.22V9.82l15.52 3.82v13.4z"/>
      <path d="M10.66 4.46 24.24 7.8l-5.78 4.98L4.9 9.45l5.77-4.99zm-.26-.85L3.2 9.83l15.52 3.8 7.2-6.22-15.52-3.8zm9.2 22.67 6.33-5.46-6.34-1.56v7.02z"/>
    </symbol>
    <symbol id="logo-third" viewBox="0 0 57 32">
      <path d="M19.41 26.19h.03l.02.01.12.12a1 1 0 0 1-.33.2c-.15.06-.3.09-.46.08-.15 0-.3-.02-.44-.07a.9.9 0 0 1-.53-.5 1.02 1.02 0 0 1 0-.8.98.98 0 0 1 .56-.5 1.35 1.35 0 0 1 .89-.01h-.01c.1.04.22.1.3.18l-.09.11-.03.02a.06.06 0 0 1-.03.02.1.1 0 0 1-.05-.02l-.05-.03-.07-.04a.82.82 0 0 0-.37-.09h-.04c-.1 0-.21.02-.31.06a.69.69 0 0 0-.42.38.92.92 0 0 0 0 .63c.07.19.21.33.4.39.1.03.2.05.3.05h.18a.7.7 0 0 0 .38-.17.09.09 0 0 1 .05-.02zm3.36-.56c0 .14-.02.26-.07.4a.95.95 0 0 1-.56.5c-.3.1-.6.1-.9 0a1.02 1.02 0 0 1-.34-.2.9.9 0 0 1-.21-.3v-.01a.96.96 0 0 1 .22-1.1 1.14 1.14 0 0 1 .78-.26c.16 0 .31.02.45.07a.9.9 0 0 1 .64.87v.03zm-.3 0c0-.11-.02-.22-.05-.32a.66.66 0 0 0-.4-.38 1.02 1.02 0 0 0-.65 0 .68.68 0 0 0-.24.15.63.63 0 0 0-.16.23 1 1 0 0 0 0 .64c.07.18.21.32.4.38a1 1 0 0 0 .64 0 .7.7 0 0 0 .25-.15.66.66 0 0 0 .16-.23c.03-.11.05-.22.05-.32zm2.6.33.03.07.03-.07.04-.07.74-1.17.04-.04h.28v1.9h-.26v-1.52l-.74 1.19a.1.1 0 0 1-.05.04.13.13 0 0 1-.06.01H25a.1.1 0 0 1-.04-.04l-.77-1.2v1.53h-.25v-1.9h.28c.02 0 .03.02.04.03l.76 1.18.04.07zm2.8-.1v.72h-.3v-1.9h.65a1.1 1.1 0 0 1 .62.15.9.9 0 0 1 .15.19c.03.08.05.16.04.25 0 .17-.08.33-.2.43a.64.64 0 0 1-.27.13c-.1.03-.21.04-.34.04h-.36zm0-.2h.34c.08 0 .16 0 .23-.03a.5.5 0 0 0 .16-.08.37.37 0 0 0 .13-.29v-.02c0-.05 0-.1-.02-.13a.39.39 0 0 0-.1-.13.64.64 0 0 0-.36-.1h-.39v.78zm3.9.92h-.23a.1.1 0 0 1-.06-.02.12.12 0 0 1-.04-.04l-.2-.46h-.99l-.2.46a.1.1 0 0 1-.1.06h-.25l.88-1.91h.3l.88 1.9zm-1.44-.7h.82l-.34-.78a1.15 1.15 0 0 1-.07-.17v-.01l-.03.1-.03.08-.35.77zm2.7-1.2.04.04 1.28 1.44v-1.49h.25v1.91h-.14l-.06-.01a.16.16 0 0 1-.05-.04l-1.27-1.44v1.5h-.26v-1.92h.16l.05.01zm3.72 1.14v.76h-.3v-.76l-.8-1.15h.27a.1.1 0 0 1 .06.02l.04.04.5.75.08.16.05-.08.05-.08.49-.75a.21.21 0 0 1 .04-.04.1.1 0 0 1 .06-.02h.27l-.82 1.16zm-11.83-4.35.39.03a10.71 10.71 0 0 0 4.75-3.56l.02-.03a8.53 8.53 0 0 0 1.7-5.12v-.16l-2.17-1.87a9.56 9.56 0 0 1-.59 5.93c-.9 1.99-2.31 3.6-4.05 4.76l-.05.02z"/>
      <path d="M24.15 21.39h.06a10.82 10.82 0 0 0 4.32-4.92 9.09 9.09 0 0 0 .39-6.25l.01.07-3.08-2.67a11.35 11.35 0 0 1 1.44 7.15v-.06c-.35 2.6-1.48 4.9-3.15 6.68zm10.45-6.55A9.7 9.7 0 0 1 31 20.1l-.03.02c-.53.4-1.1.76-1.72 1.07a10.62 10.62 0 0 0 4.03-1.98l-.03.02a8.92 8.92 0 0 0 2.57-3.25l.03-.06-1.25-1.08z"/>
      <path d="m34.1 14.54-1.77-1.55a8.9 8.9 0 0 1-1.7 5.01l.03-.02a10.93 10.93 0 0 1-4.29 3.53l-.06.03c.4 0 .8-.03 1.2-.06a11 11 0 0 0 4.3-2.75 9.02 9.02 0 0 0 2.29-4.13v-.06zm-9.69-8.05L22.3 4.64a10 10 0 0 0-4.68 3.2l-.01.01a7.95 7.95 0 0 0-1.77 4.95 8.05 8.05 0 0 0 2.15 5.39 10.34 10.34 0 0 0 5.43 3.08l.07.01a11.6 11.6 0 0 0 3.25-7.22v-.04l.02-.64c0-2.6-.88-5-2.36-6.92l.02.03zm14.6 7.77a8.22 8.22 0 0 0-2.96-6.18 10.84 10.84 0 0 0-7.02-2.57h-.08c-1.23 0-2.45.2-3.6.6l12.99 11.27c.42-.92.67-2 .67-3.12z"/>
    </symbol>
    <symbol id="smartphone" viewBox="0 0 20 32">
      <path d="M17 0H3a3 3 0 0 0-3 3v26a3 3 0 0 0 3 3h14a3 3 0 0 0 3-3V3a3 3 0 0 0-3-3zM3 2h14c.56 0 1 .44 1 1v21H2V3c0-.56.44-1 1-1zm14 28H3a1 1 0 0 1-1-1v-3h16v3a1 1 0 0 1-1 1z"/>
      <path d="M4.7 27.48c.4.36.4.96 0 1.32a1.05 1.05 0 0 1-1.4 0 .9.9 0 0 1 0-1.32c.4-.36 1-.36 1.4 0z"/>
    </symbol>
    <symbol id="twitter" viewBox="0 0 32 32">
      <path d="M32 6.08c-1.1.5-2.37.86-3.7 1.03l-.08.01a6.46 6.46 0 0 0 2.88-3.63 13.95 13.95 0 0 1-4.16 1.6 6.54 6.54 0 0 0-11.37 4.45c0 .54.06 1.06.18 1.56v-.04A18.55 18.55 0 0 1 2.26 4.23l-.03-.04a6.6 6.6 0 0 0 1.98 8.75l.02.02a6.3 6.3 0 0 1-2.96-.8v.06c0 3.2 2.27 5.84 5.26 6.45a6.41 6.41 0 0 1-3.01.1l.04.01a6.64 6.64 0 0 0 6.13 4.56h.01a13.1 13.1 0 0 1-9.77 2.73H0a18.29 18.29 0 0 0 10 2.95h.07c12.08 0 18.67-10 18.67-18.67 0-.29 0-.58-.03-.85A13.1 13.1 0 0 0 32 6.1z"/>
    </symbol>
    <symbol id="close-icon" viewBox="0 0 32 32">
      <path d="M32 3.2 28.8 0 16 12.8 3.2 0 0 3.2 12.8 16 0 28.8 3.2 32 16 19.2 28.8 32l3.2-3.2L19.2 16 32 3.2z"/>
    </symbol>
    <symbol id="icon-send" viewBox="0 0 32 32">
      <path d="M32 0 0 18l10.23 3.79L26 7 14 23.19V32l5.73-6.7L27 28l5-28z"/>
    </symbol>
    <symbol id="mail" viewBox="0 0 43 32">
      <path d="M37.33 0h-32c-2.18 0-4 1.81-4 4v24c0 2.19 1.82 4 4 4h32c2.19 0 4-1.81 4-4V4c0-2.19-1.81-4-4-4zm-.8 8.5L22.4 17.34a2.01 2.01 0 0 1-2.14 0L6.14 8.53a1.7 1.7 0 1 1 1.82-2.87L21.33 14l13.42-8.37a1.7 1.7 0 1 1 1.8 2.88h-.02z"/>
    </symbol>
    <symbol id="tel" viewBox="0 0 32 32">
      <path d="m27.43 20.85-4.2-.46a3.3 3.3 0 0 0-2.73.91l-3.04 3.07A25.08 25.08 0 0 1 6.63 13.6l-.07-.14 3.06-3.06c.71-.7 1.05-1.71.94-2.72l-.46-4.16A3.32 3.32 0 0 0 6.81.59H3.93A3.29 3.29 0 0 0 .62 4.02a28.14 28.14 0 0 0 26.2 26.28h.08a3.29 3.29 0 0 0 3.43-3.3v-2.86a3.3 3.3 0 0 0-2.9-3.3z"/>
    </symbol>
    <symbol id="name" viewBox="0 0 32 32">
      <path d="M16 16a8 8 0 0 0 0-16 8 8 0 0 0 0 16zm0 4c-5.33 0-16 2.67-16 8v2c0 1.1.9 2 2 2h28a2 2 0 0 0 2-2v-2c0-5.33-10.67-8-16-8z"/>
    </symbol>
    <symbol id="icon-checkbox" viewBox="0 0 34 32">
      <path d="M30.336 3.563v24.875h-26.539v-24.875h26.539zM30.336 0h-26.539c-2.091 0-3.797 1.6-3.797 3.563v24.875c0 1.963 1.707 3.563 3.797 3.563h26.539c2.091 0 3.797-1.6 3.797-3.563v-24.875c0-1.963-1.707-3.563-3.797-3.563z"></path>
    </symbol>
    <symbol id="email" viewBox="0 0 32 32">
    <path d="M26.667 5.333h-21.333c-1.476 0-2.667 1.191-2.667 2.667v16c0 1.458 1.191 2.667 2.667 2.667h21.333c1.458 0 2.667-1.209 2.667-2.667v-16c0-1.476-1.209-2.667-2.667-2.667zM26.133 11.004l-9.422 5.884c-0.202 0.127-0.448 0.202-0.711 0.202s-0.509-0.075-0.717-0.206l0.006 0.003-9.422-5.867c-0.364-0.195-0.607-0.572-0.607-1.006 0-0.628 0.509-1.138 1.138-1.138 0.255 0 0.491 0.084 0.681 0.226l-0.003-0.002 8.924 5.564 8.942-5.582c0.193-0.155 0.441-0.249 0.71-0.249 0.628 0 1.138 0.509 1.138 1.138 0 0.454-0.266 0.846-0.65 1.028l-0.007 0.003z"></path>
    </symbol>
    <symbol id="phone" viewBox="0 0 32 32">
    <path d="M24.889 19.769l-3.271-0.356c-0.782-0.107-1.564 0.178-2.116 0.711l-2.364 2.382c-3.67-1.894-6.586-4.81-8.429-8.372l-0.051-0.108 2.382-2.382c0.551-0.551 0.818-1.333 0.729-2.116l-0.356-3.236c-0.156-1.288-1.243-2.276-2.56-2.276-0.006 0-0.012 0-0.019 0h-2.221c-1.458 0-2.667 1.209-2.578 2.667 0.716 10.991 9.453 19.729 20.38 20.441l0.065 0.003c1.458 0.089 2.667-1.12 2.667-2.578v-2.222c0-1.316-0.96-2.4-2.258-2.56z"></path>
    </symbol>
    <symbol id="person" viewBox="0 0 32 32">
    <path d="M16 16c2.946 0 5.333-2.388 5.333-5.333s-2.388-5.333-5.333-5.333v0c-2.946 0-5.333 2.388-5.333 5.333s2.388 5.333 5.333 5.333v0zM16 18.667c-3.556 0-10.667 1.778-10.667 5.333v1.333c0 0.729 0.604 1.333 1.333 1.333h18.667c0.729 0 1.333-0.604 1.333-1.333v-1.333c0-3.556-7.111-5.333-10.667-5.333z"></path>
    </symbol>
  </defs>
</svg>
