<svg xmlns="http://www.w3.org/2000/svg" aria-hidden="true" overflow="hidden" style="position:absolute;width:0;height:0">
  <defs>
    <symbol id="envelope" viewBox="0 0 43 32">
      <path d="M38.67 0H4a4 4 0 0 0-4 4v24a4 4 0 0 0 4 4h34.67a4 4 0 0 0 4-4V4a4 4 0 0 0-4-4zm0 2.67c.2 0 .38.04.54.1h-.01L21.33 18.24 3.47 2.77c.15-.06.33-.1.52-.1h34.68zm0 26.66H4c-.74 0-1.33-.6-1.33-1.33V5.6l17.78 15.41a1.33 1.33 0 0 0 1.77 0L40 5.6V28c0 .74-.6 1.33-1.33 1.33z"/>
    </symbol>
    <symbol id="facebook" viewBox="0 0 32 32">
      <path d="M21.33 5.31h2.93V.22C23.74.16 22.02 0 20 0c-4.22 0-7.1 2.66-7.1 7.52V12H8.26v5.68h4.64V32h5.7V17.7h4.46l.7-5.7h-5.17V8.08c0-1.65.45-2.77 2.74-2.77z"/>
    </symbol>
    <symbol id="instagram" viewBox="0 0 32 32">
      <path d="M31.97 9.4c-.03-1.4-.3-2.73-.76-3.96l.02.08a7.86 7.86 0 0 0-1.85-2.83A7.95 7.95 0 0 0 26.54.85 11.48 11.48 0 0 0 22.67.1h-.01a104.86 104.86 0 0 0-6.69-.1h.1c-4.36 0-4.9.02-6.6.1C7.76.16 6.6.45 5.58.83A8.04 8.04 0 0 0 2.75 2.7 8 8 0 0 0 .92 5.47l-.02.05A11.47 11.47 0 0 0 .16 9.4a104.86 104.86 0 0 0-.1 6.69V16c0 4.35 0 4.9.08 6.6.03 1.4.3 2.73.78 3.96l-.02-.08a7.78 7.78 0 0 0 1.85 2.83 8 8 0 0 0 2.78 1.84l.05.02c1.01.38 2.18.65 3.88.73 1.7.08 2.24.1 6.59.1s4.9-.02 6.6-.1c1.4-.02 2.73-.29 3.96-.76l-.08.03a8.24 8.24 0 0 0 4.67-4.64l.02-.05c.38-1.02.67-2.18.73-3.89.08-1.7.1-2.24.1-6.59 0-4.34 0-4.88-.08-6.6zm-2.88 13.08a8.54 8.54 0 0 1-.55 2.96 5.34 5.34 0 0 1-3 3.03l-.04.01c-.56.22-1.42.48-2.97.54-1.68.08-2.2.1-6.47.1a106.97 106.97 0 0 1-6.7-.1h.24a8.45 8.45 0 0 1-2.96-.54 4.96 4.96 0 0 1-1.84-1.2c-.52-.5-.93-1.1-1.19-1.79l-.01-.03a8.64 8.64 0 0 1-.54-2.98 108.65 108.65 0 0 1-.1-6.55v.09c0-4.28.02-4.79.1-6.47a8.6 8.6 0 0 1 .54-2.97c.26-.7.66-1.32 1.2-1.83.5-.52 1.12-.93 1.8-1.19h.04c.56-.23 1.4-.49 2.98-.55 1.68-.08 2.19-.1 6.44-.1 4.3 0 4.8 0 6.47.1a8.6 8.6 0 0 1 2.97.54c.7.26 1.33.66 1.84 1.2.53.51.95 1.14 1.2 1.83.21.57.48 1.42.55 2.97.08 1.68.1 2.2.1 6.47s-.02 4.76-.1 6.46z"/>
      <path d="M16.06 7.78a8.22 8.22 0 1 0 0 16.44 8.22 8.22 0 1 0 0-16.44zm0 13.55a5.33 5.33 0 1 1 0-10.66 5.33 5.33 0 1 1 0 10.66zM26.53 7.46a1.92 1.92 0 0 1-3.84 0 1.92 1.92 0 0 1 3.84 0z"/>
    </symbol>
    <symbol id="linkedin" viewBox="0 0 32 32">
      <path d="M32 32V20.26c0-5.73-1.23-10.16-7.95-10.16h-.26a6.96 6.96 0 0 0-6 3.42l-.01.03h-.1v-2.91H11.3V32h6.64V21.42c0-2.78.53-5.49 3.97-5.49 3.4 0 3.45 3.19 3.45 5.67V32H32zM.53 10.64h6.64V32H.53V10.64zM3.84 0A3.84 3.84 0 0 0 0 3.84v.02a3.87 3.87 0 0 0 3.84 3.87 3.87 3.87 0 0 0 0-7.73z"/>
    </symbol>
    <symbol id="logo-fifth" viewBox="0 0 57 32">
      <path d="M14.27 23.86c.13.15.2.33.2.52a.73.73 0 0 1-.08.36.89.89 0 0 1-.22.3c-.26.17-.57.26-.89.24h-1.55v-3.3h1.52l.08-.01c.29 0 .55.09.77.23.17.13.29.35.29.6v.02a.7.7 0 0 1-.18.5.83.83 0 0 1-.46.26c.2.03.39.13.52.28zm-1.81-.5h.64c.15.01.3-.03.42-.1a.32.32 0 0 0 .1-.15.33.33 0 0 0 .03-.18.35.35 0 0 0-.02-.18.42.42 0 0 0-.1-.14.66.66 0 0 0-.44-.11h-.64v.86zm1.12 1.27c.1-.08.15-.2.15-.33v-.03a.42.42 0 0 0-.16-.32.71.71 0 0 0-.39-.12h-.73v.9h.7c.15.02.3-.02.42-.1zm3.8.65-.85-1.3h-.32v1.3h-.72v-3.3h1.37l.1-.01c.33 0 .63.1.87.29a.99.99 0 0 1 .1 1.36c-.17.18-.4.3-.66.34l.9 1.32h-.8zm-1.17-1.74h.6c.4 0 .61-.16.61-.5v-.02a.5.5 0 0 0-.16-.35.67.67 0 0 0-.4-.14h-.66v1zm5.13 1.07h-1.45l-.25.67h-.77l1.34-3.27h.82l1.32 3.27h-.76l-.26-.67zm-.2-.5-.53-1.39-.52 1.4h1.06zm5.16 1.17h-.72l-1.61-2.25v2.24h-.72v-3.3h.72l1.62 2.27v-2.26h.72v3.3zm4.12-.8c-.15.26-.38.46-.66.6-.28.12-.61.2-.96.2h-1.33v-3.3h1.33c.35 0 .68.07.98.2h-.02c.28.13.5.33.65.58a1.77 1.77 0 0 1 0 1.73zm-.83-.07a1.14 1.14 0 0 0 0-1.58 1.32 1.32 0 0 0-.9-.27h-.5v2.13h.5c.33.02.65-.08.9-.28zm-7.8-20.8s9.3 3.21 9.1 7.87v7.87s-9.29-3.22-9.1-7.87V3.6zm17.39 13.9a13.31 13.31 0 0 1 5.85-2h.06v-2.46a12.02 12.02 0 0 0-5.89 4.42l-.02.04z"/>
      <path d="M38.12 18.24A12.38 12.38 0 0 1 45 12.56l.09-.03v-7.1s-13.25 4.59-12.97 11.21v11.2s.59-.2 1.52-.59c0-.36 0-.72.05-1.08a11.36 11.36 0 0 1 4.4-7.9l.03-.03z"/>
      <path d="M36.86 22.4c.07-.77.23-1.54.47-2.29a10.32 10.32 0 0 0-2.8 6.76v.01c.74-.33 1.62-.74 2.54-1.23a10.7 10.7 0 0 1-.2-3.25zm.53.05a10.12 10.12 0 0 0 .17 3v-.07c3.61-1.98 7.68-5.04 7.52-8.75v-.32a12.36 12.36 0 0 0-6.9 2.96l.02-.01c-.42.93-.7 2.01-.8 3.15v.04z"/>
    </symbol>
    <symbol id="logo-first" viewBox="0 0 57 32">
      <path d="M20.27 3.73 24 7.27h-6.93v17.16H35.2v-6.56l3.73 3.53V3.73H20.27zm14.77 13.73L24.44 7.42h10.6v10.03zm-3.3 4.46h-11.8V10.39h.83v10.76h10.97v.78zm-9.01 4.8-.44.9-.44-.9h-.36l.64 1.2v.7h.32v-.7l.64-1.2h-.37zm.54 1.9.15-.44h.74l.16.43h.34l-.72-1.89h-.3l-.71 1.9h.35zm.52-1.5.28.79h-.55l.27-.79zm1.74.75a.43.43 0 0 0-.07.23c0 .16.05.3.17.4.1.1.26.14.45.14s.35-.05.48-.15l.1.12h.38l-.28-.32c.1-.15.16-.34.16-.58h-.27c0 .13-.03.25-.09.35l-.36-.43.13-.1c.1-.06.16-.13.2-.2a.42.42 0 0 0-.07-.52.48.48 0 0 0-.33-.11h-.04a.5.5 0 0 0-.34.12.46.46 0 0 0-.14.36c0 .06.02.12.05.19s.08.14.15.23c-.1.08-.2.16-.28.27zm.85.41a.48.48 0 0 1-.3.11h-.01a.3.3 0 0 1-.2-.08.28.28 0 0 1-.1-.2v-.01c0-.11.06-.2.17-.28l.03-.03.41.5zm-.33-.84c-.1-.1-.14-.2-.14-.27s.02-.12.06-.16a.19.19 0 0 1 .13-.06h.01c.06 0 .1.02.15.05.03.03.05.08.05.13 0 .07-.03.13-.08.18l-.04.03-.14.1zm3.08 1.04c.13-.12.2-.28.23-.48h-.33a.52.52 0 0 1-.12.29c-.07.06-.16.08-.3.08h-.01a.37.37 0 0 1-.3-.16.82.82 0 0 1-.12-.47v-.16c0-.2.04-.36.12-.46a.4.4 0 0 1 .33-.16c.12 0 .21.03.28.1s.1.15.12.28h.33a.72.72 0 0 0-.22-.48.73.73 0 0 0-.47-.17h-.04c-.16 0-.3.04-.41.11a.73.73 0 0 0-.27.32c-.07.13-.1.3-.1.47v.18c0 .17.03.33.1.46s.15.23.27.3c.11.08.25.11.4.11.2 0 .38-.05.51-.17zm1.94-.27c.06-.15.1-.3.1-.5v-.1c0-.19-.04-.35-.1-.48a.73.73 0 0 0-.67-.44h-.03c-.15 0-.28.04-.4.12s-.21.18-.28.32c-.06.14-.1.3-.1.5v.1c0 .18.04.34.1.48s.16.24.28.32a.81.81 0 0 0 .83 0 .75.75 0 0 0 .27-.32zm-.36-1.07c.08.1.13.27.13.48v.1c0 .21-.04.37-.12.48a.38.38 0 0 1-.32.17h-.04a.4.4 0 0 1-.32-.17.82.82 0 0 1-.12-.49v-.1c0-.2.04-.36.12-.48a.39.39 0 0 1 .34-.16.4.4 0 0 1 .33.16z"/>
    </symbol>
    <symbol id="logo-fourth" viewBox="0 0 57 32">
      <path d="M12.88 11.25c-1.28 0-2.32.93-2.32 2.06 0 1.14 1.04 2.06 2.31 2.06 1.29 0 2.33-.92 2.33-2.06 0-1.13-1.04-2.06-2.32-2.06zm17.1-.65A5.66 5.66 0 0 0 28 6.39a7.12 7.12 0 0 0-4.68-1.75h-.05c-1.78 0-3.48.63-4.74 1.75a5.64 5.64 0 0 0-1.97 4.2v8.71s13.41-1.33 13.41-8.7zM5.86 22.16c0 1.1.5 2.15 1.37 2.93a4.96 4.96 0 0 0 3.26 1.21h.03c1.24 0 2.42-.43 3.3-1.21a3.93 3.93 0 0 0 1.37-2.93v-6.05s-9.33.92-9.33 6.05zm4.66 1.08a1.3 1.3 0 0 1-.68-.18c-.2-.11-.35-.28-.44-.48a.96.96 0 0 1-.07-.64c.04-.2.15-.4.33-.55.17-.15.38-.25.62-.3.24-.03.48-.01.7.07s.42.22.56.4a1 1 0 0 1-.15 1.37c-.22.2-.52.32-.84.32h-.03zm8.53-1.94v2.28h-.47V21.3h.47zm.9.97v.37h-1.03v-.37h1.03zm.1-.97v.37h-1.13v-.37h1.14zm2.15 1.08v.11c0 .18-.02.33-.07.47a1.1 1.1 0 0 1-.2.35.96.96 0 0 1-1.09.22.88.88 0 0 1-.3-.22.88.88 0 0 1-.2-.35 1.41 1.41 0 0 1-.07-.44v-.13c0-.18.02-.33.07-.47s.1-.26.2-.35c.08-.1.18-.17.3-.22a.98.98 0 0 1 .4-.08c.42 0 .77.27.89.64v.01c.05.14.07.3.07.46zm-.47.11v-.1c0-.13-.01-.24-.03-.33a.68.68 0 0 0-.1-.23.42.42 0 0 0-.35-.19h-.04a.43.43 0 0 0-.35.19l-.09.22v.01l-.03.3v.13c0 .12 0 .23.03.32.03.1.05.17.1.24.04.06.1.1.15.14a.5.5 0 0 0 .22.05.4.4 0 0 0 .2-.06.43.43 0 0 0 .16-.13.67.67 0 0 0 .1-.24c.02-.09.03-.2.03-.32zm2 .5v-.02a.3.3 0 0 0-.02-.1.2.2 0 0 0-.07-.09.6.6 0 0 0-.13-.08 1.72 1.72 0 0 0-.22-.08h-.02L23 22.5a1.2 1.2 0 0 1-.24-.15.6.6 0 0 1-.16-.19.53.53 0 0 1-.07-.25v-.01c0-.1.02-.18.07-.26.04-.07.1-.14.17-.2s.16-.1.27-.12a1.17 1.17 0 0 1 .78.04c.12.06.21.14.28.25s.11.22.11.36h-.47v-.01a.35.35 0 0 0-.04-.17.3.3 0 0 0-.12-.12.44.44 0 0 0-.2-.04h-.03a.48.48 0 0 0-.19.04.27.27 0 0 0-.12.1.23.23 0 0 0-.04.13c0 .04 0 .08.03.11l.09.09.14.08.2.07c.11.03.23.08.32.12.1.05.17.1.24.16.11.11.19.27.19.44 0 .1-.02.2-.06.27a.62.62 0 0 1-.17.2.9.9 0 0 1-.26.13 1.27 1.27 0 0 1-.97-.14.67.67 0 0 1-.3-.55v-.02h.48v.02c0 .11.05.22.13.29a.3.3 0 0 0 .14.06l.18.02h.02c.07 0 .13-.01.19-.03a.25.25 0 0 0 .15-.23zm1.8-1.69v2.28h-.47V21.3h.46zm.7 0v.37h-1.86v-.37h1.86zm1.8 1.91v.37h-1.21v-.37h1.2zm-1.06-1.9v2.27h-.47V21.3h.47zm.9.92v.36h-1.06v-.36h1.06zm.15-.93v.37h-1.2v-.37h1.2zm.27 0h.86c.17 0 .32.03.44.08a.7.7 0 0 1 .3.23.76.76 0 0 1 .03.69.51.51 0 0 1-.17.21.79.79 0 0 1-.27.14l-.14.08h-.74v-.36h.56c.07 0 .14-.02.2-.05h-.01c.05-.02.1-.07.12-.12a.37.37 0 0 0 .05-.17V22a.4.4 0 0 0-.04-.18.27.27 0 0 0-.13-.12.45.45 0 0 0-.2-.04h-.38v1.9h-.48V21.3zm1.28 2.28-.52-1.01h.5l.52.99v.02h-.5zm2.46-.81h-.57v-.37h.57c.1 0 .16-.02.22-.04a.3.3 0 0 0 .12-.13.37.37 0 0 0 .05-.17.45.45 0 0 0-.05-.2.32.32 0 0 0-.12-.14.4.4 0 0 0-.2-.05h-.43v1.9h-.47V21.3h.88a1 1 0 0 1 .46.1c.24.11.4.35.4.62v.03a.7.7 0 0 1-.1.38.6.6 0 0 1-.3.25c-.12.06-.27.09-.46.09zm2.7.44v.37h-1.21v-.37h1.21zm-1.05-1.9v2.27h-.47V21.3h.47zm.9.92v.36h-1.06v-.36h1.06zm.15-.93v.37h-1.21v-.37h1.21zm1.32 0v2.28h-.47V21.3h.47zm.7 0v.37H34.9v-.37h1.85zm1.8 1.91v.37h-1.21v-.37h1.21zm-1.06-1.9v2.27h-.47V21.3h.47zm.9.92v.36h-1.05v-.36h1.05zm.16-.93v.37h-1.21v-.37h1.2zm.27 0h.85c.18 0 .32.03.45.08s.22.13.29.23c.06.1.1.23.1.37 0 .13-.02.23-.06.32a.57.57 0 0 1-.18.22.81.81 0 0 1-.26.13l-.14.08h-.74v-.36h.56a.5.5 0 0 0 .2-.05h-.01c.05-.02.1-.07.12-.12a.37.37 0 0 0 .04-.17v-.01a.41.41 0 0 0-.04-.19.27.27 0 0 0-.12-.12.45.45 0 0 0-.2-.04h-.39v1.9h-.47V21.3zm1.28 2.28-.53-1.01h.5l.52.99v.02h-.5zm1.95-.6a.3.3 0 0 0-.01-.1.2.2 0 0 0-.07-.1.6.6 0 0 0-.13-.08 1.72 1.72 0 0 0-.22-.08h-.02l-.29-.12a.82.82 0 0 1-.24-.15.6.6 0 0 1-.16-.19.53.53 0 0 1-.06-.24v-.02c0-.1.02-.18.06-.26.04-.07.1-.14.17-.2s.16-.1.27-.12a1.17 1.17 0 0 1 .78.04c.12.06.22.14.28.25s.11.23.11.36h-.46a.35.35 0 0 0-.05-.17.3.3 0 0 0-.12-.12.44.44 0 0 0-.2-.05h-.03a.48.48 0 0 0-.19.04.27.27 0 0 0-.12.1.23.23 0 0 0-.04.13c0 .04.01.08.03.11l.09.09.14.08.2.07c.12.03.23.08.32.12.1.05.18.1.24.16a.6.6 0 0 1 .14.71.62.62 0 0 1-.17.2.93.93 0 0 1-.26.13 1.25 1.25 0 0 1-.98-.14.67.67 0 0 1-.29-.55v-.02h.48c0 .08 0 .14.03.19s.05.08.1.11a.2.2 0 0 0 .13.07l.19.02h.02c.06 0 .13-.01.18-.03.1-.04.16-.13.16-.23z"/>
    </symbol>
    <symbol id="logo-second" viewBox="0 0 57 32">
      <path d="M26.73 3.16h-1.38.03c-1.94.11-3.84.6-5.6 1.44l-.23.1v11.82l.54-.18c1.73-.63 3.72-1 5.8-1.02h.01v1.55l-.56.01h-.05c-2.69.15-5.17.9-7.37 2.1l.1-.04V3.79a15.5 15.5 0 0 1 4.04-1.67l.1-.02a15.6 15.6 0 0 1 3.91-.5h.24c.97 0 1.91.13 2.81.36l-.08-.01v1.53c-.54-.14-1.19-.24-1.85-.29h-.07l-.4-.03zm2.68 1.56a16.44 16.44 0 0 0 5.28-.51l-.12.02c1.5-.38 2.82-.9 4.04-1.58l-.08.04v14.88c-1.2.7-2.58 1.29-4.05 1.66l-.1.03c-1.29.32-2.6.5-3.92.5h-.09c-1.02 0-2.01-.13-2.96-.37l.08.02V4.44c.56.13 1.21.23 1.89.28h.03zm7.58.12-.54.18a17.9 17.9 0 0 1-7.02 1h.05l-.44-.03v12.14l.37.04a14.35 14.35 0 0 0 4.69-.43l-.1.01a14.4 14.4 0 0 0 2.84-1.03l-.09.04.24-.11V4.85zM19.06 24.11a.8.8 0 0 0-.57-.24h-.03a.97.97 0 0 0-.35.07.8.8 0 0 0-.5.78v2.03a.85.85 0 0 0 .28.68c.08.07.17.12.27.14s.2.05.3.05c.47-.01.85-.4.85-.86v-.22h-.54v.18c0 .06 0 .12-.02.18a.31.31 0 0 1-.08.11.37.37 0 0 1-.22.08h-.03a.27.27 0 0 1-.22-.1.48.48 0 0 1-.07-.27v-1.9c0-.1.02-.2.07-.3a.27.27 0 0 1 .22-.12h.04c.1 0 .17.05.23.11.05.08.09.17.09.27v.18h.52v-.21a.96.96 0 0 0-.24-.64zm3.14-.02a.94.94 0 0 0-.92-.16c-.1.03-.2.09-.27.16a.89.89 0 0 0-.28.68v1.93c0 .14.02.28.07.4a.88.88 0 0 0 .49.45.9.9 0 0 0 .63 0 .83.83 0 0 0 .56-.79v-2.03a.88.88 0 0 0-.28-.64zm-.24 2.61v.03c0 .1-.04.2-.11.26a.39.39 0 0 1-.5 0 .34.34 0 0 1-.1-.26v-2c0-.1.04-.18.1-.25a.39.39 0 0 1 .5 0c.07.07.1.16.1.26v1.96zm4.37.87V23.9h-.51l-.67 1.95-.68-1.95h-.5v3.68h.52v-2.24h.01l.51 1.58h.27l.52-1.58v2.24h.53zm2.98-3.41a.68.68 0 0 0-.3-.2 1 1 0 0 0-.36-.06h-.79v3.67h.52v-1.44h.27c.16.01.32-.02.47-.1a.88.88 0 0 0 .4-.59 2.51 2.51 0 0 0-.02-.96v.02a.79.79 0 0 0-.19-.35zm-.26 1.12a.6.6 0 0 1-.06.19.25.25 0 0 1-.13.12.52.52 0 0 1-.23.06h-.26v-1.26h.29a.5.5 0 0 1 .22.05c.05.03.1.08.12.14.03.06.05.13.05.2v.5zm2.74-1.38h-.43l-.8 3.67h.52l.16-.78h.7l.17.78h.51l-.82-3.67zm-.48 2.38.26-1.33.26 1.33h-.52zm3.86-.17-.8-2.21h-.5v3.67h.53v-2.2l.8 2.2h.5V23.9h-.53v2.22zm3.2-2.21-.42 1.46-.44-1.46h-.55l.72 2.12v1.55h.53v-1.55l.72-2.12h-.56zM17.6 28.6h.25v.72h.17v-.71h.25v-.15h-.67v.15zm2.12-.14-.33.86h.18l.07-.2h.34l.07.2h.19l-.34-.86h-.18zm-.02.52.1-.32.12.32h-.22zm2.11.02h.2v.11a.33.33 0 0 1-.2.07h-.01a.21.21 0 0 1-.17-.08.36.36 0 0 1-.06-.2v-.02c0-.19.08-.28.24-.28h.02a.2.2 0 0 1 .18.13l.17-.03c-.04-.17-.16-.25-.37-.25h-.01a.48.48 0 0 0-.29.1.41.41 0 0 0-.12.34c0 .11.03.23.11.32.08.07.18.12.3.12h.03c.14 0 .26-.05.36-.14v-.33h-.37V29zm2.15-.54h-.17v.86h.6v-.15h-.43v-.7zm1.81 0h-.17v.86h.17v-.86zm1.77.57-.35-.57h-.17v.86h.16v-.56l.35.56h.17v-.86h-.16v.57zm1.6-.09h.43v-.14h-.43v-.2h.45v-.14h-.63v.86h.66v-.15h-.48v-.23zm3.88-.14h-.34v-.34h-.17v.86h.17v-.38h.34v.38h.17v-.86h-.17v.34zm1.6.14h.44v-.14h-.43v-.2h.46v-.14h-.63v.86h.64v-.15h-.47v-.23zm2.2 0c.14-.02.21-.1.21-.24v-.02a.2.2 0 0 0-.08-.16.48.48 0 0 0-.22-.06h-.39v.86h.17v-.36h.03c.04 0 .08 0 .11.02s.05.04.06.07l.2.26h.2l-.11-.16a.56.56 0 0 0-.19-.21zm-.18-.11h-.13v-.22h.19c.05 0 .1 0 .13.02a.1.1 0 0 1 0 .18.47.47 0 0 1-.15.02h-.03zm1.82.11h.43v-.14h-.43v-.2h.46v-.14h-.63v.86h.64v-.15h-.47v-.23z"/>
    </symbol>
    <symbol id="logo-sixth" viewBox="0 0 57 32">
      <path d="M28.5 14.61a1.56 1.56 0 0 1-.33-1.06v-1.53c0-.47.1-.83.32-1.07s.59-.37 1.1-.37c.49 0 .84.1 1.04.31.23.27.34.6.31.92v.36h-.87v-.36c0-.13 0-.24-.03-.36a.35.35 0 0 0-.12-.21.5.5 0 0 0-.28-.09h-.07a.53.53 0 0 0-.3.1.42.42 0 0 0-.15.23 2.3 2.3 0 0 0-.03.37v1.87c-.02.18.02.36.1.53a.44.44 0 0 0 .41.15h.04c.1 0 .2-.03.27-.08a.37.37 0 0 0 .13-.23c.02-.12.03-.25.03-.37v-.39h.87v.35c.02.34-.08.68-.3.97-.2.22-.55.34-1.05.34s-.88-.13-1.1-.38zm3.64.03c-.22-.25-.33-.6-.33-1.06v-1.61c0-.46.1-.8.33-1.04.22-.24.59-.35 1.1-.35.52 0 .89.11 1.1.35.23.23.34.58.34 1.04v1.61c0 .46-.1.8-.33 1.05-.23.24-.59.36-1.1.36s-.9-.12-1.11-.36zm1.51-.4a.9.9 0 0 0 .11-.48V11.8a.86.86 0 0 0-.1-.47.41.41 0 0 0-.18-.13.48.48 0 0 0-.23-.03h-.07a.48.48 0 0 0-.17.03.43.43 0 0 0-.18.13.94.94 0 0 0-.1.44v2.02a.9.9 0 0 0 .1.48.62.62 0 0 0 .64.11.57.57 0 0 0 .18-.11v-.02zm2.08-3.62h.95l.7 3 .73-3h.92l.09 4.31h-.68l-.07-2.99-.7 3h-.55l-.73-3.01-.06 3h-.69l.09-4.3zm4.45 0h1.46c.85 0 1.27.42 1.27 1.23 0 .78-.44 1.17-1.33 1.17h-.5v1.91h-.9v-4.3zm1.25 1.85c.09 0 .18 0 .27-.02a.77.77 0 0 0 .23-.12.7.7 0 0 0 .13-.48c0-.14-.01-.27-.04-.4a.36.36 0 0 0-.18-.2.96.96 0 0 0-.37-.07h-.39v1.3h.35zm2.78-1.85h.98l1 4.31h-.85l-.2-.99h-.86l-.2 1h-.86l1-4.32zm.84 2.82-.34-1.8-.34 1.8h.68zM47 10.62h.63l1.21 2.46v-2.45h.76v4.3H49l-1.22-2.56v2.56H47v-4.3zm4.36 2.67-1.01-2.66h.85l.61 1.7.58-1.7h.83l-1 2.67v1.63h-.87V13.3zm-21.47 3.53v.22h-.74v1.75h-.3v-1.75h-.75v-.22h1.8zm2.32 1.98h-.24a.1.1 0 0 1-.07-.03.1.1 0 0 1-.04-.04l-.21-.47h-1.03l-.2.47-.04.05a.1.1 0 0 1-.06.02h-.25l.9-1.97h.33l.9 1.96zm-1.5-.74h.85l-.36-.8a1.33 1.33 0 0 1-.06-.18v-.01l-.04.1-.03.09-.36.8zm3.06.54h.17c.1 0 .2-.03.29-.06h-.01l.12-.05v-.44h-.36c-.02 0-.04 0-.05-.02l-.01-.01-.01-.02v-.15h.7v.75c-.17.11-.38.18-.6.2a1.46 1.46 0 0 1-.74-.06h.01a.96.96 0 0 1-.59-.51 1 1 0 0 1-.09-.41v-.04a.9.9 0 0 1 .32-.7c.1-.08.23-.15.36-.2a1.5 1.5 0 0 1 .75-.05h-.01c.15.02.28.06.4.13l.16.1-.1.12c0 .01-.01.02-.03.02a.1.1 0 0 1-.03.02l-.06-.02a1.12 1.12 0 0 0-.58-.16h-.04a.93.93 0 0 0-.34.06.74.74 0 0 0-.43.39.94.94 0 0 0 0 .66.78.78 0 0 0 .8.45zm2.9-.04h.98v.23h-1.3v-1.97h.32v1.75zm2 .24h-.3v-1.98h.3v1.98zm1.16-1.97c.02 0 .04.02.05.03l1.32 1.5V16.8h.27v1.99h-.15c-.03 0-.05 0-.07-.02a.18.18 0 0 1-.05-.03l-1.32-1.5v1.55h-.26v-1.98h.21zm3.93-.01v.2h-1.1v.67h.89v.2h-.9v.68h1.1v.21h-1.41v-1.96h1.42zM11.29 4.62l13.76 3.37v11.82l-13.76-3.37V4.62zM10.4 3.6v13.41l15.51 3.81V7.42L10.4 3.6z"/>
      <path d="M18.72 27.04 3.2 23.22V9.82l15.52 3.82v13.4z"/>
      <path d="M10.66 4.46 24.24 7.8l-5.78 4.98L4.9 9.45l5.77-4.99zm-.26-.85L3.2 9.83l15.52 3.8 7.2-6.22-15.52-3.8zm9.2 22.67 6.33-5.46-6.34-1.56v7.02z"/>
    </symbol>
    <symbol id="logo-third" viewBox="0 0 57 32">
      <path d="M19.41 26.19h.03l.02.01.12.12a1 1 0 0 1-.33.2c-.15.06-.3.09-.46.08-.15 0-.3-.02-.44-.07a.9.9 0 0 1-.53-.5 1.02 1.02 0 0 1 0-.8.98.98 0 0 1 .56-.5 1.35 1.35 0 0 1 .89-.01h-.01c.1.04.22.1.3.18l-.09.11-.03.02a.06.06 0 0 1-.03.02.1.1 0 0 1-.05-.02l-.05-.03-.07-.04a.82.82 0 0 0-.37-.09h-.04c-.1 0-.21.02-.31.06a.69.69 0 0 0-.42.38.92.92 0 0 0 0 .63c.07.19.21.33.4.39.1.03.2.05.3.05h.18a.7.7 0 0 0 .38-.17.09.09 0 0 1 .05-.02zm3.36-.56c0 .14-.02.26-.07.4a.95.95 0 0 1-.56.5c-.3.1-.6.1-.9 0a1.02 1.02 0 0 1-.34-.2.9.9 0 0 1-.21-.3v-.01a.96.96 0 0 1 .22-1.1 1.14 1.14 0 0 1 .78-.26c.16 0 .31.02.45.07a.9.9 0 0 1 .64.87v.03zm-.3 0c0-.11-.02-.22-.05-.32a.66.66 0 0 0-.4-.38 1.02 1.02 0 0 0-.65 0 .68.68 0 0 0-.24.15.63.63 0 0 0-.16.23 1 1 0 0 0 0 .64c.07.18.21.32.4.38a1 1 0 0 0 .64 0 .7.7 0 0 0 .25-.15.66.66 0 0 0 .16-.23c.03-.11.05-.22.05-.32zm2.6.33.03.07.03-.07.04-.07.74-1.17.04-.04h.28v1.9h-.26v-1.52l-.74 1.19a.1.1 0 0 1-.05.04.13.13 0 0 1-.06.01H25a.1.1 0 0 1-.04-.04l-.77-1.2v1.53h-.25v-1.9h.28c.02 0 .03.02.04.03l.76 1.18.04.07zm2.8-.1v.72h-.3v-1.9h.65a1.1 1.1 0 0 1 .62.15.9.9 0 0 1 .15.19c.03.08.05.16.04.25 0 .17-.08.33-.2.43a.64.64 0 0 1-.27.13c-.1.03-.21.04-.34.04h-.36zm0-.2h.34c.08 0 .16 0 .23-.03a.5.5 0 0 0 .16-.08.37.37 0 0 0 .13-.29v-.02c0-.05 0-.1-.02-.13a.39.39 0 0 0-.1-.13.64.64 0 0 0-.36-.1h-.39v.78zm3.9.92h-.23a.1.1 0 0 1-.06-.02.12.12 0 0 1-.04-.04l-.2-.46h-.99l-.2.46a.1.1 0 0 1-.1.06h-.25l.88-1.91h.3l.88 1.9zm-1.44-.7h.82l-.34-.78a1.15 1.15 0 0 1-.07-.17v-.01l-.03.1-.03.08-.35.77zm2.7-1.2.04.04 1.28 1.44v-1.49h.25v1.91h-.14l-.06-.01a.16.16 0 0 1-.05-.04l-1.27-1.44v1.5h-.26v-1.92h.16l.05.01zm3.72 1.14v.76h-.3v-.76l-.8-1.15h.27a.1.1 0 0 1 .06.02l.04.04.5.75.08.16.05-.08.05-.08.49-.75a.21.21 0 0 1 .04-.04.1.1 0 0 1 .06-.02h.27l-.82 1.16zm-11.83-4.35.39.03a10.71 10.71 0 0 0 4.75-3.56l.02-.03a8.53 8.53 0 0 0 1.7-5.12v-.16l-2.17-1.87a9.56 9.56 0 0 1-.59 5.93c-.9 1.99-2.31 3.6-4.05 4.76l-.05.02z"/>
      <path d="M24.15 21.39h.06a10.82 10.82 0 0 0 4.32-4.92 9.09 9.09 0 0 0 .39-6.25l.01.07-3.08-2.67a11.35 11.35 0 0 1 1.44 7.15v-.06c-.35 2.6-1.48 4.9-3.15 6.68zm10.45-6.55A9.7 9.7 0 0 1 31 20.1l-.03.02c-.53.4-1.1.76-1.72 1.07a10.62 10.62 0 0 0 4.03-1.98l-.03.02a8.92 8.92 0 0 0 2.57-3.25l.03-.06-1.25-1.08z"/>
      <path d="m34.1 14.54-1.77-1.55a8.9 8.9 0 0 1-1.7 5.01l.03-.02a10.93 10.93 0 0 1-4.29 3.53l-.06.03c.4 0 .8-.03 1.2-.06a11 11 0 0 0 4.3-2.75 9.02 9.02 0 0 0 2.29-4.13v-.06zm-9.69-8.05L22.3 4.64a10 10 0 0 0-4.68 3.2l-.01.01a7.95 7.95 0 0 0-1.77 4.95 8.05 8.05 0 0 0 2.15 5.39 10.34 10.34 0 0 0 5.43 3.08l.07.01a11.6 11.6 0 0 0 3.25-7.22v-.04l.02-.64c0-2.6-.88-5-2.36-6.92l.02.03zm14.6 7.77a8.22 8.22 0 0 0-2.96-6.18 10.84 10.84 0 0 0-7.02-2.57h-.08c-1.23 0-2.45.2-3.6.6l12.99 11.27c.42-.92.67-2 .67-3.12z"/>
    </symbol>
    <symbol id="smartphone" viewBox="0 0 20 32">
      <path d="M17 0H3a3 3 0 0 0-3 3v26a3 3 0 0 0 3 3h14a3 3 0 0 0 3-3V3a3 3 0 0 0-3-3zM3 2h14c.56 0 1 .44 1 1v21H2V3c0-.56.44-1 1-1zm14 28H3a1 1 0 0 1-1-1v-3h16v3a1 1 0 0 1-1 1z"/>
      <path d="M4.7 27.48c.4.36.4.96 0 1.32a1.05 1.05 0 0 1-1.4 0 .9.9 0 0 1 0-1.32c.4-.36 1-.36 1.4 0z"/>
    </symbol>
    <symbol id="twitter" viewBox="0 0 32 32">
      <path d="M32 6.08c-1.1.5-2.37.86-3.7 1.03l-.08.01a6.46 6.46 0 0 0 2.88-3.63 13.95 13.95 0 0 1-4.16 1.6 6.54 6.54 0 0 0-11.37 4.45c0 .54.06 1.06.18 1.56v-.04A18.55 18.55 0 0 1 2.26 4.23l-.03-.04a6.6 6.6 0 0 0 1.98 8.75l.02.02a6.3 6.3 0 0 1-2.96-.8v.06c0 3.2 2.27 5.84 5.26 6.45a6.41 6.41 0 0 1-3.01.1l.04.01a6.64 6.64 0 0 0 6.13 4.56h.01a13.1 13.1 0 0 1-9.77 2.73H0a18.29 18.29 0 0 0 10 2.95h.07c12.08 0 18.67-10 18.67-18.67 0-.29 0-.58-.03-.85A13.1 13.1 0 0 0 32 6.1z"/>
    </symbol>
    <symbol id="close-icon" viewBox="0 0 32 32">
      <path d="M32 3.2 28.8 0 16 12.8 3.2 0 0 3.2 12.8 16 0 28.8 3.2 32 16 19.2 28.8 32l3.2-3.2L19.2 16 32 3.2z"/>
    </symbol>
    <symbol id="icon-send" viewBox="0 0 32 32">
      <path d="M32 0 0 18l10.23 3.79L26 7 14 23.19V32l5.73-6.7L27 28l5-28z"/>
    </symbol>
    <symbol id="mail" viewBox="0 0 43 32">
      <path d="M37.33 0h-32c-2.18 0-4 1.81-4 4v24c0 2.19 1.82 4 4 4h32c2.19 0 4-1.81 4-4V4c0-2.19-1.81-4-4-4zm-.8 8.5L22.4 17.34a2.01 2.01 0 0 1-2.14 0L6.14 8.53a1.7 1.7 0 1 1 1.82-2.87L21.33 14l13.42-8.37a1.7 1.7 0 1 1 1.8 2.88h-.02z"/>
    </symbol>
    <symbol id="tel" viewBox="0 0 32 32">
      <path d="m27.43 20.85-4.2-.46a3.3 3.3 0 0 0-2.73.91l-3.04 3.07A25.08 25.08 0 0 1 6.63 13.6l-.07-.14 3.06-3.06c.71-.7 1.05-1.71.94-2.72l-.46-4.16A3.32 3.32 0 0 0 6.81.59H3.93A3.29 3.29 0 0 0 .62 4.02a28.14 28.14 0 0 0 26.2 26.28h.08a3.29 3.29 0 0 0 3.43-3.3v-2.86a3.3 3.3 0 0 0-2.9-3.3z"/>
    </symbol>
    <symbol id="name" viewBox="0 0 32 32">
      <path d="M16 16a8 8 0 0 0 0-16 8 8 0 0 0 0 16zm0 4c-5.33 0-16 2.67-16 8v2c0 1.1.9 2 2 2h28a2 2 0 0 0 2-2v-2c0-5.33-10.67-8-16-8z"/>
    </symbol>
    <symbol id="icon-checkbox" viewBox="0 0 34 32">
      <path d="M30.336 3.563v24.875h-26.539v-24.875h26.539zM30.336 0h-26.539c-2.091 0-3.797 1.6-3.797 3.563v24.875c0 1.963 1.707 3.563 3.797 3.563h26.539c2.091 0 3.797-1.6 3.797-3.563v-24.875c0-1.963-1.707-3.563-3.797-3.563z"></path>
    </symbol>
    <symbol id="email" viewBox="0 0 32 32">
      <path d="M26.667 5.333h-21.333c-1.476 0-2.667 1.191-2.667 2.667v16c0 1.458 1.191 2.667 2.667 2.667h21.333c1.458 0 2.667-1.209 2.667-2.667v-16c0-1.476-1.209-2.667-2.667-2.667zM26.133 11.004l-9.422 5.884c-0.202 0.127-0.448 0.202-0.711 0.202s-0.509-0.075-0.717-0.206l0.006 0.003-9.422-5.867c-0.364-0.195-0.607-0.572-0.607-1.006 0-0.628 0.509-1.138 1.138-1.138 0.255 0 0.491 0.084 0.681 0.226l-0.003-0.002 8.924 5.564 8.942-5.582c0.193-0.155 0.441-0.249 0.71-0.249 0.628 0 1.138 0.509 1.138 1.138 0 0.454-0.266 0.846-0.65 1.028l-0.007 0.003z"></path>
    </symbol>
    <symbol id="phone" viewBox="0 0 32 32">
      <path d="M24.889 19.769l-3.271-0.356c-0.782-0.107-1.564 0.178-2.116 0.711l-2.364 2.382c-3.67-1.894-6.586-4.81-8.429-8.372l-0.051-0.108 2.382-2.382c0.551-0.551 0.818-1.333 0.729-2.116l-0.356-3.236c-0.156-1.288-1.243-2.276-2.56-2.276-0.006 0-0.012 0-0.019 0h-2.221c-1.458 0-2.667 1.209-2.578 2.667 0.716 10.991 9.453 19.729 20.38 20.441l0.065 0.003c1.458 0.089 2.667-1.12 2.667-2.578v-2.222c0-1.316-0.96-2.4-2.258-2.56z"></path>
    </symbol>
    <symbol id="person" viewBox="0 0 32 32">
      <path d="M16 16c2.946 0 5.333-2.388 5.333-5.333s-2.388-5.333-5.333-5.333v0c-2.946 0-5.333 2.388-5.333 5.333s2.388 5.333 5.333 5.333v0zM16 18.667c-3.556 0-10.667 1.778-10.667 5.333v1.333c0 0.729 0.604 1.333 1.333 1.333h18.667c0.729 0 1.333-0.604 1.333-1.333v-1.333c0-3.556-7.111-5.333-10.667-5.333z"></path>
    </symbol>
    <symbol id="menu-close" viewBox="0 0 32 32">
      <path d="M23.733 10.304l-1.504-1.504-5.963 5.963-5.963-5.963-1.504 1.504 5.963 5.963-5.963 5.963 1.504 1.504 5.963-5.963 5.963 5.963 1.504-1.504-5.963-5.963 5.963-5.963z"></path>
    </symbol>
    <symbol id="burger-menu" viewBox="0 0 32 32">
      <path d="M6.4 11.733v-2.133h19.2v2.133h-19.2zM6.4 17.067h19.2v-2.133h-19.2v2.133zM6.4 22.4h19.2v-2.133h-19.2v2.133z"></path>
    </symbol>
    <symbol id="logo-client-first" viewBox="0 0 73 32">
      <path d="M30.957 7.304l2.539 2.407h7.096v6.713l2.539 2.403v-11.523h-12.174z"></path>
      <path d="M28.87 9.61v11.19h11.826v-4.452l-7.123-6.734h-4.703zM38.442 19.169h-7.701v-7.53h0.546v7.019h7.155v0.511zM32.278 22.88l0.278-0.584h0.243l-0.417 0.783v0.452h-0.216v-0.452l-0.417-0.783h0.243l0.282 0.584zM33.496 23.245h-0.48l-0.097 0.285h-0.226l0.47-1.235h0.191l0.47 1.235h-0.226l-0.101-0.285zM33.078 23.071h0.358l-0.181-0.515-0.177 0.515zM34.344 23.197c-0-0.001-0-0.003-0-0.004 0-0.057 0.017-0.109 0.046-0.153l-0.001 0.001c0.031-0.049 0.094-0.104 0.184-0.17-0.039-0.045-0.074-0.095-0.102-0.149l-0.002-0.004c-0.015-0.035-0.024-0.076-0.024-0.12 0-0.002 0-0.004 0-0.006v0c0-0.094 0.028-0.174 0.087-0.23s0.139-0.083 0.24-0.083c0.003-0 0.006-0 0.010-0 0.081 0 0.154 0.030 0.209 0.080l-0-0c0.059 0.052 0.087 0.118 0.087 0.195 0 0.052-0.014 0.101-0.038 0.143-0.028 0.045-0.070 0.087-0.129 0.132l-0.083 0.059 0.237 0.282c0.035-0.070 0.052-0.143 0.052-0.226h0.181c0 0.153-0.035 0.278-0.108 0.376l0.181 0.212h-0.24l-0.070-0.080c-0.087 0.066-0.191 0.097-0.313 0.097-0.125 0-0.223-0.031-0.296-0.097-0.066-0.059-0.108-0.146-0.108-0.241 0-0.004 0-0.009 0-0.013l-0 0.001zM34.751 23.384c0.074-0 0.142-0.027 0.195-0.070l-0.001 0-0.268-0.32-0.028 0.021c-0.070 0.052-0.104 0.108-0.104 0.174 0 0.059 0.021 0.104 0.059 0.139 0.035 0.035 0.087 0.056 0.146 0.056zM34.64 22.584c0 0.052 0.028 0.111 0.087 0.181l0.094-0.063 0.024-0.021c0.035-0.035 0.052-0.070 0.052-0.122 0-0.001 0-0.002 0-0.004 0-0.030-0.013-0.058-0.035-0.076l-0-0c-0.023-0.022-0.054-0.035-0.088-0.035-0.002 0-0.004 0-0.006 0h0c-0.038 0-0.070 0.014-0.094 0.038-0.022 0.026-0.035 0.059-0.035 0.096 0 0.003 0 0.006 0 0.009l-0-0zM36.883 23.13c-0.010 0.132-0.059 0.233-0.146 0.31-0.083 0.070-0.198 0.108-0.337 0.108-0.003 0-0.006 0-0.010 0-0.093 0-0.179-0.026-0.253-0.071l0.002 0.001c-0.076-0.048-0.135-0.116-0.173-0.195l-0.001-0.003c-0.040-0.086-0.063-0.187-0.063-0.294 0-0.002 0-0.004 0-0.006v0-0.118c0-0.115 0.021-0.219 0.063-0.306 0.074-0.165 0.237-0.279 0.427-0.279 0.007 0 0.013 0 0.019 0l-0.001-0c0.136 0 0.243 0.035 0.327 0.111 0.083 0.073 0.132 0.177 0.146 0.313h-0.212c-0.010-0.087-0.035-0.153-0.080-0.191-0.045-0.037-0.103-0.059-0.167-0.059-0.005 0-0.010 0-0.014 0l0.001-0c-0.094 0-0.167 0.035-0.216 0.104s-0.077 0.167-0.077 0.299v0.108c0 0.136 0.024 0.237 0.070 0.306 0.049 0.070 0.118 0.104 0.209 0.104 0.087 0 0.15-0.017 0.195-0.056 0.042-0.035 0.070-0.101 0.080-0.188h0.212zM38.066 22.946c0 0.122-0.024 0.226-0.066 0.32-0.042 0.090-0.101 0.16-0.177 0.209-0.078 0.047-0.172 0.074-0.273 0.074-0.098 0-0.19-0.026-0.269-0.072l0.003 0.001c-0.079-0.052-0.141-0.124-0.18-0.209l-0.001-0.003c-0.042-0.090-0.066-0.195-0.066-0.305 0-0.003 0-0.006 0-0.008v0-0.070c0-0.122 0.024-0.226 0.066-0.32 0.042-0.090 0.104-0.163 0.181-0.209 0.077-0.052 0.167-0.077 0.268-0.077 0.004-0 0.009-0 0.014-0 0.193 0 0.359 0.114 0.434 0.279l0.001 0.003c0.042 0.090 0.063 0.195 0.063 0.317v0.070zM37.85 22.88c0-0.136-0.028-0.243-0.080-0.313-0.046-0.068-0.123-0.111-0.21-0.111-0.003 0-0.006 0-0.009 0h0c-0.094 0-0.167 0.035-0.219 0.111-0.052 0.070-0.077 0.174-0.080 0.306v0.070c0 0.139 0.028 0.243 0.080 0.32 0.052 0.070 0.125 0.108 0.219 0.108 0.097 0 0.17-0.035 0.219-0.104 0.052-0.077 0.080-0.181 0.080-0.32v-0.066z"></path>
    </symbol>
    <symbol id="logo-client-second" viewBox="0 0 73 32">
      <path d="M35.471 7.976h0.045c0.090 0 0.184 0.010 0.278 0.017 0.417 0.031 0.828 0.094 1.231 0.188v-0.998c-0.535-0.142-1.15-0.224-1.783-0.226h-0.151c-0.859 0-1.718 0.115-2.55 0.33-1.027 0.259-1.93 0.636-2.758 1.125l0.048-0.026v9.878c1.373-0.757 2.994-1.242 4.719-1.338l0.029-0.001h0.028c0.122-0.007 0.243-0.010 0.372-0.010v-1.009c-1.363 0.015-2.666 0.256-3.878 0.687l0.083-0.026-0.351 0.118v-7.701l0.15-0.070c1.202-0.583 2.612-0.93 4.102-0.946l0.005-0h0.16l0.219 0.007z"></path>
      <path d="M37.951 9.019c-0.001 0-0.003 0-0.005 0-0.684 0-1.349-0.076-1.989-0.22l0.060 0.011v9.76c0.633 0.157 1.287 0.233 1.937 0.23 0.859-0.003 1.718-0.115 2.55-0.327 1.029-0.261 1.932-0.639 2.761-1.129l-0.048 0.026v-9.701c-0.743 0.413-1.603 0.758-2.508 0.992l-0.077 0.017c-0.877 0.223-1.774 0.337-2.678 0.341zM41.854 9.19l0.355-0.118v7.704l-0.15 0.070c-1.216 0.593-2.645 0.939-4.155 0.939-0.223 0-0.445-0.008-0.665-0.023l0.030 0.002-0.243-0.021v-7.923l0.282 0.017c0.187 0.010 0.406 0.016 0.626 0.016 1.405 0 2.752-0.243 4.004-0.689l-0.083 0.026zM30.518 21.638c-0.095-0.097-0.227-0.157-0.373-0.157-0.007 0-0.014 0-0.021 0l0.001-0c-0.077 0-0.153 0.014-0.226 0.042-0.195 0.078-0.331 0.266-0.331 0.486 0 0.009 0 0.018 0.001 0.027l-0-0.001v1.322c0 0.090 0.014 0.184 0.052 0.268 0.035 0.070 0.077 0.129 0.132 0.177 0.052 0.045 0.115 0.077 0.181 0.094s0.132 0.028 0.198 0.028c0.303-0.006 0.546-0.253 0.546-0.556 0-0 0-0 0-0v0-0.146h-0.348v0.115c0.003 0.042 0 0.083-0.017 0.118-0.011 0.030-0.028 0.055-0.049 0.077v0c-0.039 0.030-0.089 0.048-0.142 0.049h-0c-0.007 0.001-0.015 0.002-0.023 0.002-0.057 0-0.108-0.028-0.14-0.071l-0-0c-0.031-0.048-0.049-0.106-0.049-0.168 0-0.003 0-0.007 0-0.010v0-1.231c0-0.070 0.014-0.136 0.045-0.195 0.031-0.049 0.085-0.081 0.147-0.081 0.007 0 0.014 0 0.021 0.001l-0.001-0c0.002-0 0.004-0 0.006-0 0.060 0 0.113 0.029 0.147 0.073l0 0c0.037 0.047 0.059 0.107 0.059 0.172 0 0.001 0 0.002 0 0.003v-0 0.118h0.341v-0.136c0-0.001 0-0.003 0-0.005 0-0.159-0.059-0.303-0.157-0.413l0.001 0.001zM32.567 21.624c-0.106-0.089-0.244-0.143-0.394-0.143-0.073 0-0.143 0.013-0.208 0.036l0.004-0.001c-0.070 0.024-0.129 0.059-0.184 0.104-0.112 0.106-0.181 0.255-0.181 0.42 0 0.009 0 0.018 0.001 0.026l-0-0.001v1.263c-0.003 0.090 0.014 0.177 0.049 0.261 0.031 0.070 0.077 0.129 0.132 0.174 0.056 0.052 0.115 0.090 0.184 0.115 0.061 0.023 0.132 0.036 0.205 0.036s0.144-0.013 0.209-0.037l-0.004 0.001c0.215-0.074 0.366-0.275 0.366-0.511 0-0.012-0-0.025-0.001-0.037l0 0.002v-1.266c0-0.007 0.001-0.016 0.001-0.025 0-0.165-0.070-0.313-0.181-0.417l-0-0zM32.407 23.329c0.001 0.006 0.001 0.013 0.001 0.020 0 0.065-0.027 0.123-0.070 0.164l-0 0c-0.044 0.037-0.101 0.060-0.163 0.060s-0.12-0.023-0.164-0.060l0 0c-0.043-0.041-0.070-0.099-0.070-0.164 0-0.007 0-0.014 0.001-0.021l-0 0.001v-1.263c-0-0.006-0.001-0.012-0.001-0.019 0-0.065 0.027-0.124 0.070-0.165l0-0c0.044-0.037 0.101-0.060 0.163-0.060s0.12 0.023 0.164 0.060l-0-0c0.043 0.041 0.070 0.099 0.070 0.164 0 0.007-0 0.014-0.001 0.021l0-0.001v1.263zM35.259 23.896v-2.4h-0.334l-0.435 1.27h-0.007l-0.438-1.27h-0.327v2.397h0.341v-1.461h0.007l0.334 1.033h0.174l0.337-1.030h0.003v1.457h0.344zM37.203 21.67c-0.052-0.063-0.118-0.104-0.195-0.132-0.071-0.024-0.154-0.038-0.239-0.038-0.003 0-0.006 0-0.008 0h-0.507v2.397h0.341v-0.939h0.174c0.108 0.007 0.216-0.014 0.31-0.063 0.138-0.087 0.235-0.226 0.264-0.39l0.001-0.003c0.014-0.081 0.021-0.173 0.021-0.268 0-0.122-0.013-0.241-0.037-0.355l0.002 0.011c-0.024-0.087-0.067-0.162-0.125-0.223l0 0zM37.030 22.4c-0.003 0.045-0.016 0.086-0.036 0.123l0.001-0.002c-0.017 0.035-0.049 0.070-0.087 0.083-0.044 0.022-0.097 0.035-0.152 0.035-0.004 0-0.008-0-0.012-0l0.001 0h-0.153v-0.817h0.174c0.004-0 0.008-0 0.012-0 0.052 0 0.102 0.012 0.147 0.032l-0.002-0.001c0.035 0.017 0.063 0.049 0.080 0.087s0.027 0.084 0.028 0.132v0.327zM38.817 21.499h-0.278l-0.529 2.397h0.344l0.101-0.515h0.463l0.104 0.515h0.337l-0.539-2.397zM38.504 23.054l0.167-0.87h0.007l0.167 0.87h-0.341zM41.026 22.943h-0.007l-0.515-1.443h-0.327v2.397h0.341v-1.44h0.007l0.522 1.44h0.32v-2.4h-0.341v1.443zM43.113 21.499l-0.278 0.953h-0.003l-0.278-0.953h-0.358l0.47 1.384v1.009h0.341v-1.009l0.47-1.384h-0.362zM29.565 24.57h0.163v0.463h0.111v-0.463h0.163v-0.094h-0.438v0.094zM30.95 24.477l-0.216 0.557h0.118l0.045-0.125h0.223l0.045 0.125h0.122l-0.219-0.557h-0.118zM30.932 24.814l0.073-0.209 0.077 0.209h-0.15zM32.313 24.828h0.132v0.070c-0.036 0.030-0.082 0.048-0.132 0.049h-0c-0.003 0-0.006 0-0.009 0-0.044 0-0.083-0.020-0.109-0.052l-0-0c-0.026-0.037-0.042-0.084-0.042-0.134 0-0.004 0-0.009 0-0.013l-0 0.001c0-0.122 0.052-0.184 0.16-0.184 0.003-0 0.007-0.001 0.011-0.001 0.054 0 0.1 0.037 0.114 0.087l0 0.001 0.111-0.021c-0.024-0.108-0.104-0.163-0.237-0.163-0.003-0-0.007-0-0.011-0-0.071 0-0.135 0.026-0.185 0.070l0-0c-0.050 0.049-0.081 0.118-0.081 0.193 0 0.008 0 0.016 0.001 0.023l-0-0.001c0 0.077 0.021 0.153 0.070 0.209 0.050 0.052 0.119 0.084 0.196 0.084 0.006 0 0.011-0 0.017-0l-0.001 0c0.001 0 0.002 0 0.003 0 0.090 0 0.172-0.034 0.234-0.091l-0 0v-0.219h-0.243v0.094zM33.711 24.477h-0.111v0.557h0.39v-0.094h-0.278v-0.463zM34.894 24.477h-0.115v0.557h0.115v-0.557zM36.049 24.849l-0.23-0.372h-0.108v0.557h0.104v-0.362l0.223 0.362h0.111v-0.557h-0.104v0.372zM37.092 24.79h0.278v-0.094h-0.278v-0.125h0.296v-0.094h-0.41v0.557h0.424v-0.094h-0.313v-0.15zM39.621 24.696h-0.219v-0.219h-0.111v0.557h0.111v-0.243h0.219v0.243h0.111v-0.557h-0.111v0.219zM40.671 24.79h0.278v-0.094h-0.278v-0.125h0.299v-0.094h-0.41v0.557h0.421v-0.094h-0.31v-0.15zM42.094 24.79c0.097-0.017 0.146-0.070 0.146-0.157 0.001-0.005 0.001-0.010 0.001-0.016 0-0.043-0.021-0.082-0.053-0.106l-0-0c-0.042-0.022-0.092-0.035-0.145-0.035-0.007 0-0.013 0-0.020 0.001l0.001-0h-0.237v0.557h0.111v-0.233h0.024c0 0 0.001 0 0.001 0 0.025 0 0.048 0.005 0.069 0.014l-0.001-0c0.015 0.011 0.027 0.025 0.035 0.041l0 0.001 0.125 0.174h0.132l-0.070-0.104c-0.028-0.056-0.070-0.104-0.122-0.139zM41.983 24.713h-0.083v-0.139h0.090c0.035-0.003 0.077 0 0.111 0.010 0.008 0.008 0.014 0.017 0.017 0.027l0 0c0.007 0.010 0.007 0.021 0.007 0.031-0.001 0.023-0.011 0.043-0.028 0.056l-0 0c-0.028 0.009-0.061 0.015-0.095 0.015-0.007 0-0.014-0-0.021-0.001l0.001 0zM43.165 24.79h0.278v-0.094h-0.278v-0.125h0.303v-0.094h-0.41v0.557h0.421v-0.094h-0.313v-0.15z"></path>
    </symbol>
    <symbol id="logo-client-third" viewBox="0 0 73 32">
      <path d="M31.426 23.235c0 0 0 0 0 0 0.011 0 0.020 0.004 0.028 0.010l-0-0 0.070 0.073c-0.056 0.063-0.125 0.111-0.202 0.143-0.090 0.035-0.188 0.056-0.285 0.052-0.090 0-0.184-0.014-0.268-0.049-0.155-0.062-0.275-0.184-0.333-0.337l-0.001-0.004c-0.030-0.078-0.048-0.169-0.048-0.263 0-0.098 0.019-0.192 0.053-0.277l-0.002 0.005c0.067-0.159 0.193-0.282 0.351-0.343l0.004-0.001c0.079-0.030 0.171-0.047 0.266-0.047s0.187 0.017 0.271 0.049l-0.005-0.002c0.070 0.028 0.139 0.070 0.195 0.118l-0.063 0.080c-0.004 0.005-0.009 0.010-0.014 0.014l-0 0c-0.006 0.004-0.013 0.007-0.021 0.007-0.001 0-0.002-0-0.003-0h0c-0.009-0.002-0.018-0.005-0.024-0.011l0 0-0.035-0.021-0.045-0.028c-0.066-0.035-0.144-0.056-0.227-0.056-0.006 0-0.012 0-0.018 0l0.001-0c-0.006-0-0.014-0-0.021-0-0.132 0-0.251 0.053-0.337 0.14v0c-0.042 0.045-0.077 0.097-0.101 0.157-0.023 0.064-0.036 0.137-0.036 0.214s0.013 0.15 0.038 0.218l-0.001-0.005c0.024 0.059 0.056 0.111 0.101 0.16 0.042 0.042 0.090 0.077 0.15 0.097 0.056 0.024 0.118 0.035 0.184 0.035 0.035 0 0.070 0 0.104-0.007 0.094-0.010 0.177-0.051 0.24-0.111l-0 0c0.009-0.008 0.021-0.014 0.035-0.014h0zM33.492 22.856c0 0.090-0.017 0.181-0.049 0.264-0.031 0.077-0.077 0.15-0.136 0.209-0.059 0.056-0.132 0.104-0.209 0.132-0.081 0.030-0.175 0.048-0.273 0.048s-0.192-0.018-0.279-0.050l0.006 0.002c-0.16-0.062-0.284-0.185-0.346-0.34l-0.001-0.004c-0.030-0.079-0.048-0.169-0.048-0.264s0.018-0.186 0.050-0.27l-0.002 0.005c0.063-0.159 0.188-0.281 0.344-0.34l0.004-0.001c0.174-0.063 0.369-0.063 0.543 0 0.159 0.062 0.283 0.184 0.346 0.337l0.002 0.004c0.035 0.087 0.049 0.174 0.049 0.268zM33.304 22.856c0-0.070-0.010-0.143-0.035-0.212-0.040-0.12-0.13-0.215-0.244-0.26l-0.003-0.001c-0.059-0.022-0.127-0.035-0.198-0.035s-0.139 0.013-0.202 0.036l0.004-0.001c-0.117 0.046-0.207 0.14-0.246 0.258l-0.001 0.003c-0.045 0.139-0.045 0.285 0 0.424 0.040 0.12 0.13 0.215 0.244 0.26l0.003 0.001c0.129 0.045 0.268 0.045 0.397 0 0.116-0.047 0.204-0.141 0.243-0.258l0.001-0.003c0.028-0.070 0.038-0.139 0.035-0.209zM34.901 23.078l0.017 0.049 0.021-0.049 0.024-0.045 0.456-0.793c0.010-0.014 0.017-0.021 0.028-0.024 0.008-0.002 0.018-0.004 0.028-0.004 0.002 0 0.005 0 0.007 0h0.139v1.287h-0.16v-0.988c-0-0.006-0.001-0.014-0.001-0.021s0-0.015 0.001-0.022l-0 0.001-0.463 0.8c-0.012 0.025-0.037 0.042-0.066 0.042-0.001 0-0.002-0-0.004-0h-0.021c-0.001 0-0.002 0-0.004 0-0.029 0-0.054-0.017-0.066-0.041l-0-0-0.47-0.807v1.033h-0.157v-1.287h0.139l0.035 0.007c0.010 0.007 0.021 0.014 0.024 0.024l0.466 0.793 0.024 0.045zM36.623 23.016v0.483h-0.181v-1.287h0.4c0.077 0 0.15 0.007 0.223 0.028 0.059 0.014 0.111 0.042 0.157 0.080 0.042 0.035 0.070 0.077 0.090 0.125 0.021 0.052 0.031 0.108 0.031 0.167 0 0.001 0 0.003 0 0.005 0 0.178-0.121 0.328-0.286 0.37l-0.003 0.001c-0.062 0.020-0.133 0.031-0.207 0.031-0.003 0-0.006-0-0.010-0h0.001l-0.216-0.003zM36.623 22.877h0.216c0.049 0 0.094-0.007 0.139-0.017 0.035-0.014 0.070-0.035 0.101-0.056 0.026-0.024 0.046-0.053 0.059-0.085l0.001-0.002c0.014-0.035 0.021-0.070 0.021-0.108 0-0.004 0-0.009 0-0.014 0-0.071-0.031-0.134-0.080-0.177l-0-0c-0.070-0.052-0.153-0.077-0.243-0.070h-0.212v0.529zM39.026 23.499h-0.139c-0.002 0-0.004 0-0.007 0-0.013 0-0.025-0.004-0.035-0.011l0 0c-0.011-0.008-0.019-0.019-0.024-0.031l-0-0-0.122-0.313h-0.609l-0.129 0.313c-0.005 0.011-0.012 0.021-0.021 0.028l-0 0c-0.010 0.008-0.024 0.014-0.038 0.014h-0.143l0.536-1.287h0.188l0.543 1.287zM38.139 23.023h0.504l-0.209-0.525c-0.015-0.033-0.029-0.074-0.040-0.116l-0.001-0.006-0.021 0.070-0.23 0.574zM39.798 22.219c0.010 0.003 0.021 0.010 0.028 0.021l0.783 0.974v-1.002h0.16v1.287h-0.090c-0.010 0-0.024 0-0.035-0.007s-0.020-0.015-0.028-0.024l-0-0-0.783-0.97v1.002h-0.16v-1.287h0.094c0.001-0 0.003-0 0.004-0 0.011 0 0.022 0.003 0.031 0.007l-0-0zM42.087 22.988v0.511h-0.177v-0.511l-0.494-0.776h0.16c0.014 0 0.028 0 0.035 0.010 0.014 0.007 0.021 0.017 0.028 0.028l0.31 0.501c0.018 0.032 0.036 0.070 0.050 0.109l0.002 0.006 0.024-0.056 0.031-0.059 0.306-0.504c0.006-0.009 0.013-0.017 0.021-0.024l0-0c0.010-0.009 0.023-0.014 0.037-0.014 0.001 0 0.001 0 0.002 0h0.163l-0.497 0.779zM34.814 20.049l0.233 0.024c1.216-0.521 2.215-1.353 2.924-2.398l0.015-0.023c0.654-0.966 1.045-2.157 1.045-3.439 0-0.043-0-0.086-0.001-0.129l0 0.006-1.332-1.27c0.271 1.343 0.143 2.727-0.365 4.007-0.541 1.317-1.406 2.408-2.497 3.206l-0.021 0.015z"></path>
      <path d="M34.337 19.99l0.035 0.007c1.191-0.811 2.11-1.942 2.644-3.27l0.017-0.048c0.293-0.73 0.462-1.577 0.462-2.464 0-0.608-0.080-1.197-0.23-1.758l0.011 0.047-1.892-1.802c0.595 1.122 0.945 2.452 0.945 3.865 0 2.074-0.754 3.971-2.002 5.434l0.010-0.012zM40.765 15.579c-0.35 1.443-1.14 2.665-2.218 3.549l-0.011 0.009c-0.33 0.271-0.685 0.515-1.061 0.723 0.953-0.27 1.778-0.727 2.47-1.332l-0.007 0.006c0.686-0.599 1.228-1.343 1.582-2.187l0.015-0.039-0.769-0.73z"></path>
      <path d="M40.463 15.374l-1.096-1.043c-0.024 1.253-0.404 2.412-1.041 3.388l0.015-0.025c-0.669 1.022-1.573 1.837-2.639 2.382l-0.039 0.018h0.007c0.243 0 0.487-0.010 0.73-0.038 1.053-0.413 1.942-1.045 2.644-1.846l0.007-0.008c0.68-0.776 1.174-1.732 1.405-2.786l0.008-0.042zM34.497 9.941l-1.308-1.245c-1.181 0.438-2.161 1.187-2.868 2.15l-0.012 0.017c-0.678 0.925-1.087 2.084-1.092 3.338v0.001c0.009 1.384 0.507 2.651 1.329 3.637l-0.007-0.009c0.854 1.024 2.016 1.766 3.342 2.085l0.043 0.009c1.197-1.391 1.899-3.106 2-4.904 0.008-0.135 0.013-0.294 0.013-0.453 0-1.729-0.538-3.332-1.456-4.652l0.018 0.027zM43.478 15.183c-0.013-1.641-0.708-3.117-1.816-4.161l-0.003-0.003c-1.137-1.076-2.677-1.738-4.371-1.738-0.796 0-1.558 0.146-2.261 0.413l0.044-0.015 7.993 7.614c0.275-0.675 0.417-1.391 0.414-2.111z"></path>
    </symbol>
    <symbol id="logo-client-fifth" viewBox="0 0 73 32">
      <path d="M27.649 21.315c0.080 0.097 0.122 0.223 0.118 0.348 0.001 0.009 0.001 0.020 0.001 0.031 0 0.164-0.071 0.312-0.185 0.414l-0 0c-0.157 0.118-0.348 0.174-0.543 0.163h-0.953v-2.226h0.932c0.184-0.014 0.369 0.038 0.518 0.146 0.111 0.094 0.182 0.233 0.182 0.389 0 0.010-0 0.020-0.001 0.030l0-0.001c0.007 0.122-0.035 0.243-0.108 0.341-0.073 0.087-0.174 0.15-0.285 0.174 0.129 0.024 0.243 0.090 0.323 0.191zM26.529 20.977h0.4c0.090 0.007 0.181-0.021 0.254-0.073 0.054-0.049 0.088-0.119 0.088-0.197 0-0.008-0-0.016-0.001-0.023l0 0.001c0-0.004 0-0.010 0-0.015 0-0.079-0.034-0.151-0.087-0.201l-0-0c-0.063-0.048-0.144-0.078-0.231-0.078-0.010 0-0.021 0-0.031 0.001l0.001-0h-0.393v0.584zM27.224 21.833c0.056-0.051 0.091-0.124 0.091-0.206 0-0.007-0-0.014-0.001-0.021l0 0.001c0-0.006 0.001-0.012 0.001-0.019 0-0.084-0.036-0.159-0.094-0.21l-0-0c-0.080-0.059-0.174-0.087-0.271-0.080h-0.417v0.612h0.421c0.097 0.007 0.191-0.021 0.268-0.077zM29.555 22.271l-0.518-0.87h-0.195v0.87h-0.449v-2.226h0.849c0.017-0.001 0.037-0.002 0.058-0.002 0.202 0 0.387 0.072 0.531 0.191l-0.001-0.001c0.125 0.128 0.202 0.304 0.202 0.498 0 0.16-0.052 0.307-0.141 0.426l0.001-0.002c-0.104 0.122-0.247 0.202-0.403 0.226l0.553 0.89h-0.487zM28.842 21.099h0.365c0.254 0 0.383-0.115 0.383-0.337 0-0.004 0-0.009 0-0.014 0-0.092-0.037-0.176-0.098-0.236v0c-0.080-0.070-0.181-0.101-0.285-0.090h-0.372v0.678zM31.997 21.823h-0.89l-0.157 0.452h-0.47l0.817-2.205h0.508l0.814 2.202h-0.47l-0.15-0.449zM31.878 21.485l-0.327-0.939-0.323 0.939h0.65zM35.054 22.271h-0.445l-0.995-1.513v1.513h-0.442v-2.226h0.442l0.995 1.52v-1.523h0.445v2.226zM37.583 21.739c-0.090 0.167-0.23 0.306-0.4 0.393-0.195 0.097-0.407 0.146-0.626 0.139h-0.786v-2.226h0.79c0.212-0.007 0.428 0.042 0.623 0.139 0.167 0.083 0.31 0.219 0.4 0.383 0.088 0.171 0.139 0.372 0.139 0.586s-0.052 0.415-0.143 0.593l0.003-0.007zM37.075 21.683c0.122-0.142 0.196-0.327 0.196-0.53s-0.074-0.389-0.196-0.532l0.001 0.001c-0.134-0.12-0.313-0.193-0.508-0.193-0.017 0-0.034 0.001-0.051 0.002l0.002-0h-0.306v1.443h0.31c0.015 0.001 0.032 0.002 0.049 0.002 0.195 0 0.373-0.073 0.509-0.194l-0.001 0.001zM32.275 7.652s5.722 2.17 5.6 5.308v5.308s-5.718-2.17-5.6-5.308v-5.308zM42.974 17.026c1.078-0.748 2.33-1.21 3.635-1.346v-1.663c-1.53 0.604-2.777 1.649-3.617 2.978l-0.018 0.031z"></path>
      <path d="M42.323 17.527c0.893-1.782 2.397-3.147 4.232-3.84l0.054-0.018v-4.786s-8.15 3.089-7.976 7.558v7.558s0.362-0.139 0.932-0.397c0-0.243 0-0.487 0.028-0.73 0.178-2.149 1.196-4.030 2.72-5.337l0.011-0.009z"></path>
      <path d="M41.548 20.334c0.045-0.522 0.139-1.043 0.285-1.548-1.041 1.227-1.687 2.818-1.725 4.559l-0 0.008c0.662-0.32 1.175-0.596 1.675-0.891l-0.11 0.060c-0.097-0.462-0.152-0.994-0.152-1.538 0-0.229 0.010-0.455 0.029-0.679l-0.002 0.029zM41.875 20.362c-0.017 0.187-0.026 0.406-0.026 0.626 0 0.48 0.045 0.949 0.131 1.403l-0.007-0.047c2.226-1.339 4.73-3.405 4.633-5.903v-0.219c-1.659 0.192-3.12 0.915-4.239 1.992l0.002-0.002c-0.255 0.63-0.431 1.361-0.492 2.123l-0.002 0.026z"></path>
    </symbol>
    <symbol id="logo-client-fourth" viewBox="0 0 73 32">
      <path d="M26.922 13.158c-0.005-0-0.011-0-0.017-0-0.772 0-1.399 0.621-1.409 1.39v0.001c0 0.765 0.64 1.388 1.426 1.388s1.426-0.626 1.426-1.391-0.64-1.388-1.426-1.388zM37.44 12.713c-0.003-1.064-0.438-2.087-1.21-2.838-0.753-0.729-1.78-1.179-2.913-1.179s-2.16 0.45-2.914 1.18l0.001-0.001c-0.744 0.719-1.208 1.724-1.214 2.837v5.876s8.247-0.894 8.25-5.871zM22.609 20.515c0 0.741 0.306 1.45 0.842 1.976 0.524 0.507 1.238 0.819 2.026 0.819s1.502-0.312 2.027-0.82l-0.001 0.001c0.518-0.501 0.841-1.2 0.845-1.975v-4.084s-5.739 0.623-5.739 4.083zM25.478 21.245c-0.001 0-0.002 0-0.003 0-0.154 0-0.297-0.045-0.417-0.124l0.003 0.002c-0.204-0.129-0.337-0.353-0.337-0.608 0-0.204 0.085-0.388 0.222-0.519l0-0c0.136-0.133 0.323-0.215 0.529-0.215 0.105 0 0.206 0.021 0.297 0.060l-0.005-0.002c0.276 0.105 0.468 0.367 0.468 0.674 0 0.205-0.086 0.391-0.224 0.522l-0 0c-0.136 0.133-0.323 0.216-0.528 0.216-0.001 0-0.003 0-0.004 0h0v-0.003zM30.748 19.917v1.482h-0.306v-1.482h0.306zM31.339 20.55v0.24h-0.675v-0.24h0.675zM31.409 19.917v0.24h-0.744v-0.243h0.748zM32.807 20.623v0.070c0 0.115-0.014 0.216-0.045 0.306s-0.073 0.163-0.129 0.23c-0.108 0.118-0.264 0.192-0.436 0.192-0.007 0-0.014-0-0.021-0l0.001 0c-0.006 0-0.014 0-0.021 0-0.172 0-0.325-0.075-0.431-0.195l-0.001-0.001c-0.063-0.063-0.104-0.139-0.139-0.226-0.027-0.083-0.042-0.179-0.042-0.278 0-0.010 0-0.020 0-0.029l-0 0.001v-0.070c0-0.111 0.014-0.216 0.045-0.303 0.031-0.090 0.073-0.167 0.129-0.23 0.11-0.12 0.268-0.195 0.443-0.195 0.004 0 0.009 0 0.013 0h-0.001c0.094 0 0.181 0.017 0.257 0.049 0.077 0.035 0.143 0.083 0.198 0.146s0.101 0.139 0.132 0.23c0.028 0.087 0.045 0.191 0.045 0.303zM32.497 20.692v-0.070c0-0.080-0.007-0.15-0.021-0.209-0.012-0.058-0.034-0.109-0.064-0.155l0.001 0.002c-0.049-0.074-0.132-0.122-0.227-0.122-0.005 0-0.009 0-0.014 0l0.001-0c-0.003-0-0.006-0-0.010-0-0.095 0-0.179 0.048-0.23 0.121l-0.001 0.001c-0.024 0.042-0.045 0.094-0.059 0.153-0.015 0.063-0.024 0.134-0.024 0.208 0 0 0 0 0 0v0 0.070c0 0.080 0.010 0.15 0.024 0.209s0.035 0.111 0.063 0.153c0.053 0.076 0.141 0.125 0.24 0.125 0 0 0 0 0 0v0c0.001 0 0.003 0 0.004 0 0.049 0 0.096-0.013 0.136-0.036l-0.001 0.001c0.040-0.022 0.073-0.053 0.097-0.089l0.001-0.001c0.028-0.042 0.049-0.094 0.063-0.153s0.021-0.129 0.021-0.209zM33.798 21.012c0-0.002 0-0.004 0-0.006 0-0.023-0.004-0.045-0.011-0.065l0 0.001c-0.008-0.025-0.023-0.046-0.042-0.062l-0-0c-0.026-0.020-0.056-0.038-0.088-0.051l-0.003-0.001c-0.039-0.018-0.087-0.037-0.137-0.053l-0.009-0.002c-0.070-0.021-0.132-0.045-0.195-0.073-0.060-0.027-0.111-0.059-0.158-0.095l0.002 0.001c-0.045-0.034-0.081-0.077-0.107-0.127l-0.001-0.002c-0.024-0.046-0.038-0.101-0.038-0.159 0-0.003 0-0.006 0-0.009v0c-0-0.003-0-0.007-0-0.011 0-0.058 0.014-0.113 0.039-0.161l-0.001 0.002c0.028-0.049 0.066-0.094 0.115-0.129s0.104-0.066 0.174-0.083c0.064-0.019 0.137-0.030 0.213-0.030 0.106 0 0.207 0.021 0.3 0.059l-0.005-0.002c0.080 0.038 0.143 0.094 0.188 0.163s0.070 0.146 0.070 0.233h-0.303c0-0.002 0-0.003 0-0.005 0-0.040-0.010-0.078-0.028-0.111l0.001 0.001c-0.020-0.033-0.048-0.060-0.082-0.076l-0.001-0c-0.037-0.018-0.080-0.028-0.125-0.028-0.004 0-0.008 0-0.011 0l0.001-0c-0.003-0-0.007-0-0.011-0-0.044 0-0.086 0.009-0.123 0.025l0.002-0.001c-0.033 0.013-0.060 0.035-0.080 0.062l-0 0.001c-0.017 0.025-0.028 0.056-0.028 0.089 0 0 0 0.001 0 0.001v-0c0 0.024 0.007 0.049 0.021 0.070 0.010 0.017 0.031 0.035 0.056 0.056 0.062 0.035 0.134 0.068 0.21 0.095l0.009 0.003c0.142 0.035 0.266 0.099 0.37 0.186l-0.001-0.001c0.077 0.070 0.125 0.171 0.125 0.283 0 0.003-0 0.006-0 0.009v-0c0 0.066-0.010 0.122-0.035 0.174-0.028 0.052-0.063 0.094-0.111 0.129s-0.104 0.063-0.17 0.080c-0.064 0.018-0.137 0.028-0.213 0.028-0.155 0-0.3-0.043-0.424-0.117l0.004 0.002c-0.116-0.079-0.191-0.211-0.191-0.36 0-0.003 0-0.006 0-0.009v0h0.31c0 0.045 0.007 0.083 0.021 0.118 0.014 0.031 0.035 0.056 0.059 0.077 0.028 0.017 0.059 0.035 0.094 0.042 0.032 0.009 0.070 0.014 0.108 0.014 0.051 0 0.1-0.009 0.146-0.025l-0.003 0.001c0.061-0.023 0.104-0.081 0.104-0.15v-0zM34.977 19.917v1.482h-0.306v-1.482h0.306zM35.433 19.917v0.24h-1.21v-0.243h1.21zM36.602 21.162v0.237h-0.79v-0.237h0.79zM35.913 19.917v1.482h-0.306v-1.482h0.306zM36.501 20.522v0.23h-0.689v-0.23h0.689zM36.602 19.917v0.24h-0.79v-0.243h0.79zM36.783 19.917h0.553c0.111 0 0.209 0.017 0.292 0.052 0.080 0.035 0.143 0.083 0.188 0.15 0.043 0.071 0.069 0.157 0.069 0.249 0 0.074-0.016 0.143-0.046 0.206l0.001-0.003c-0.025 0.057-0.063 0.104-0.11 0.138l-0.001 0.001c-0.049 0.035-0.104 0.070-0.17 0.090l-0.097 0.052h-0.48v-0.24h0.355c0.004 0 0.009 0 0.014 0 0.044 0 0.086-0.010 0.124-0.029l-0.002 0.001c0.035-0.021 0.059-0.045 0.077-0.080 0.021-0.035 0.028-0.073 0.028-0.118 0-0.004 0-0.008 0-0.012 0-0.041-0.009-0.080-0.025-0.115l0.001 0.002c-0.018-0.033-0.046-0.060-0.079-0.076l-0.001-0c-0.037-0.018-0.080-0.028-0.126-0.028-0.005 0-0.009 0-0.014 0l0.001-0h-0.243v1.242h-0.306v-1.482zM37.61 21.398l-0.337-0.661h0.323l0.341 0.647v0.014h-0.327zM39.217 20.87h-0.383v-0.237h0.383c0.003 0 0.006 0 0.010 0 0.047 0 0.091-0.010 0.131-0.029l-0.002 0.001c0.036-0.019 0.065-0.048 0.083-0.082l0.001-0.001c0.017-0.035 0.024-0.073 0.024-0.118 0-0.001 0-0.002 0-0.003 0-0.043-0.009-0.083-0.025-0.12l0.001 0.002c-0.018-0.038-0.045-0.069-0.079-0.090l-0.001-0c-0.038-0.022-0.083-0.035-0.131-0.035-0.004 0-0.008 0-0.012 0l0.001-0h-0.275v1.242h-0.306v-1.482h0.581c0.115 0 0.212 0.021 0.296 0.063 0.154 0.074 0.258 0.229 0.258 0.408 0 0.006-0 0.011-0 0.017l0-0.001c0 0.094-0.021 0.177-0.066 0.247-0.042 0.070-0.104 0.125-0.191 0.163-0.080 0.035-0.181 0.056-0.296 0.056zM40.977 21.162v0.237h-0.79v-0.237h0.79zM40.289 19.917v1.482h-0.306v-1.482h0.306zM40.877 20.522v0.23h-0.689v-0.23h0.689zM40.977 19.917v0.24h-0.79v-0.243h0.79zM41.84 19.917v1.482h-0.303v-1.482h0.303zM42.296 19.917v0.24h-1.21v-0.243h1.21zM43.468 21.162v0.237h-0.79v-0.237h0.79zM42.776 19.917v1.482h-0.306v-1.482h0.306zM43.367 20.522v0.23h-0.689v-0.23h0.685zM43.464 19.917v0.24h-0.786v-0.243h0.786zM43.645 19.917h0.557c0.111 0 0.209 0.017 0.289 0.052 0.083 0.035 0.146 0.083 0.191 0.15 0.042 0.066 0.066 0.15 0.066 0.243 0 0.080-0.014 0.15-0.042 0.209-0.028 0.056-0.066 0.104-0.111 0.139-0.049 0.035-0.104 0.070-0.174 0.090l-0.094 0.052h-0.483v-0.24h0.358c0.003 0 0.007 0 0.010 0 0.044 0 0.086-0.010 0.123-0.029l-0.002 0.001c0.035-0.021 0.063-0.045 0.080-0.080 0.018-0.033 0.028-0.072 0.028-0.113 0-0.002-0-0.004-0-0.005v0c0-0.002 0-0.004 0-0.006 0-0.043-0.010-0.084-0.029-0.121l0.001 0.002c-0.018-0.033-0.046-0.060-0.079-0.076l-0.001-0c-0.037-0.018-0.080-0.028-0.126-0.028-0.004 0-0.007 0-0.011 0h-0.246v1.242h-0.306v-1.482zM44.473 21.398l-0.337-0.661h0.323l0.344 0.647v0.014h-0.33zM45.753 21.012c0-0.002 0-0.004 0-0.007 0-0.022-0.004-0.044-0.011-0.064l0 0.001c-0.008-0.025-0.022-0.046-0.042-0.062l-0-0c-0.026-0.020-0.056-0.038-0.088-0.051l-0.003-0.001c-0.035-0.017-0.087-0.035-0.146-0.056-0.070-0.021-0.132-0.045-0.191-0.073-0.061-0.027-0.114-0.058-0.162-0.095l0.002 0.001c-0.045-0.034-0.081-0.077-0.107-0.127l-0.001-0.002c-0.024-0.045-0.038-0.098-0.038-0.155 0-0.004 0-0.009 0-0.013l-0 0.001c-0-0.003-0-0.007-0-0.011 0-0.058 0.014-0.113 0.039-0.161l-0.001 0.002c0.028-0.049 0.070-0.094 0.115-0.129 0.049-0.035 0.104-0.066 0.174-0.083 0.064-0.019 0.137-0.030 0.213-0.030 0.106 0 0.207 0.021 0.3 0.059l-0.005-0.002c0.080 0.038 0.143 0.094 0.188 0.163s0.070 0.146 0.070 0.233h-0.303c0-0.002 0-0.003 0-0.005 0-0.040-0.010-0.078-0.028-0.111l0.001 0.001c-0.020-0.033-0.048-0.060-0.082-0.076l-0.001-0c-0.037-0.018-0.080-0.028-0.125-0.028-0.004 0-0.008 0-0.011 0l0.001-0c-0.003-0-0.007-0-0.010-0-0.044 0-0.086 0.009-0.124 0.025l0.002-0.001c-0.035 0.014-0.063 0.035-0.080 0.063-0.015 0.024-0.024 0.053-0.024 0.084 0 0.002 0 0.004 0 0.007v-0c0 0.024 0.003 0.049 0.017 0.070l0.056 0.056c0.062 0.035 0.134 0.068 0.209 0.094l0.010 0.003c0.142 0.035 0.266 0.099 0.37 0.186l-0.001-0.001c0.042 0.035 0.073 0.080 0.094 0.129s0.035 0.104 0.035 0.163c0 0.066-0.014 0.122-0.042 0.174-0.025 0.052-0.060 0.095-0.103 0.128l-0.001 0.001c-0.049 0.035-0.104 0.063-0.174 0.080-0.064 0.018-0.137 0.028-0.213 0.028-0.155 0-0.3-0.043-0.424-0.117l0.004 0.002c-0.116-0.079-0.191-0.211-0.191-0.36 0-0.003 0-0.006 0-0.009v0h0.31c0 0.045 0.007 0.083 0.021 0.118 0.014 0.031 0.035 0.056 0.059 0.077 0.028 0.017 0.059 0.035 0.094 0.042 0.032 0.009 0.070 0.014 0.108 0.014 0.051 0 0.1-0.009 0.146-0.025l-0.003 0.001c0.061-0.023 0.104-0.081 0.104-0.15v-0z"></path>
    </symbol>
    <symbol id="logo-client-sixth" viewBox="0 0 73 32">
      <path d="M36.779 15.426c-0.125-0.18-0.2-0.402-0.2-0.643 0-0.025 0.001-0.049 0.002-0.074l-0 0.003v-1.043c0-0.317 0.066-0.557 0.198-0.723s0.358-0.247 0.678-0.247c0.299 0 0.515 0.070 0.64 0.209 0.139 0.181 0.205 0.4 0.188 0.623v0.243h-0.536v-0.243c0-0.083-0.003-0.163-0.017-0.243-0.008-0.058-0.036-0.109-0.076-0.146l-0-0c-0.048-0.035-0.108-0.056-0.173-0.056-0.008 0-0.016 0-0.023 0.001l0.001-0c-0.008-0.001-0.016-0.001-0.025-0.001-0.069 0-0.133 0.023-0.184 0.061l0.001-0.001c-0.045 0.041-0.076 0.096-0.087 0.158l-0 0.002c-0.013 0.076-0.021 0.164-0.021 0.254v1.259c-0.001 0.014-0.002 0.031-0.002 0.048 0 0.112 0.026 0.217 0.073 0.311l-0.002-0.004c0.028 0.035 0.063 0.070 0.104 0.087 0.045 0.017 0.094 0.024 0.139 0.017 0.070 0.007 0.139-0.014 0.195-0.056 0.042-0.042 0.070-0.094 0.080-0.153 0.010-0.083 0.017-0.167 0.017-0.25v-0.257h0.536v0.233c0.017 0.233-0.049 0.459-0.184 0.654-0.125 0.153-0.334 0.23-0.643 0.23-0.313 0-0.546-0.083-0.678-0.254zM39.023 15.437c-0.139-0.16-0.209-0.397-0.209-0.706v-1.096c0-0.31 0.070-0.543 0.209-0.699 0.136-0.16 0.362-0.237 0.682-0.237 0.313 0 0.543 0.080 0.678 0.237s0.205 0.39 0.205 0.699v1.092c0 0.306-0.070 0.543-0.209 0.706s-0.362 0.243-0.675 0.243c-0.313 0-0.546-0.083-0.682-0.243zM39.955 15.176c0.049-0.101 0.070-0.209 0.063-0.323v-1.336c0.007-0.108-0.014-0.216-0.063-0.313-0.027-0.039-0.063-0.070-0.106-0.090l-0.002-0.001c-0.030-0.013-0.066-0.020-0.103-0.020-0.014 0-0.028 0.001-0.041 0.003l0.002-0c-0.012-0.002-0.025-0.003-0.039-0.003-0.037 0-0.073 0.007-0.106 0.021l0.002-0.001c-0.045 0.019-0.083 0.049-0.111 0.086l-0.001 0.001c-0.049 0.101-0.070 0.209-0.066 0.317v1.343c-0.007 0.111 0.017 0.223 0.066 0.323 0.062 0.066 0.15 0.108 0.247 0.108 0.001 0 0.002 0 0.003-0h-0c0 0 0 0 0.001 0 0.099 0 0.189-0.041 0.253-0.108l0-0v-0.007zM41.235 12.734h0.581l0.435 2.014 0.445-2.014h0.563l0.059 2.908h-0.417l-0.045-2.021-0.431 2.017h-0.334l-0.445-2.024-0.042 2.028h-0.421l0.052-2.908zM43.965 12.734h0.904c0.522 0 0.783 0.278 0.783 0.824 0 0.529-0.278 0.79-0.824 0.79h-0.306v1.294h-0.557v-2.911zM44.737 13.976c0.014 0.002 0.031 0.003 0.048 0.003 0.098 0 0.189-0.035 0.259-0.094l-0.001 0.001c0.066-0.097 0.094-0.216 0.083-0.33 0-0.087-0.007-0.174-0.028-0.261-0.016-0.061-0.057-0.11-0.11-0.139l-0.001-0.001c-0.067-0.031-0.146-0.049-0.229-0.049-0.008 0-0.015 0-0.023 0l0.001-0h-0.216v0.87h0.216zM46.456 12.734h0.598l0.612 2.908h-0.522l-0.118-0.671h-0.532l-0.125 0.671h-0.529l0.616-2.908zM46.967 14.633l-0.209-1.217-0.209 1.217h0.417zM48.163 12.734h0.39l0.748 1.659v-1.663h0.463v2.908h-0.372l-0.751-1.732v1.732h-0.477v-2.908zM50.845 14.532l-0.619-1.795h0.522l0.383 1.155 0.351-1.155h0.515l-0.616 1.795v1.11h-0.536v-1.11zM37.642 16.911v0.153h-0.456v1.183h-0.191v-1.183h-0.456v-0.153h1.103zM39.064 18.243h-0.146c-0.001 0-0.002 0-0.002 0-0.015 0-0.029-0.005-0.040-0.014l0 0c-0.010-0.007-0.019-0.016-0.024-0.027l-0-0-0.132-0.317h-0.63l-0.132 0.313c-0.004 0.015-0.011 0.028-0.021 0.038l0-0c-0.010 0.008-0.024 0.013-0.038 0.014h-0.15l0.557-1.336h0.195l0.563 1.329zM38.143 17.75h0.525l-0.223-0.543c-0.014-0.034-0.029-0.075-0.040-0.118l-0.002-0.007-0.021 0.070-0.017 0.056-0.223 0.543zM40.028 18.111h0.104c0.063-0.006 0.121-0.021 0.175-0.043l-0.004 0.002 0.073-0.028v-0.303h-0.223c-0.001 0-0.002 0-0.004 0-0.011 0-0.020-0.004-0.028-0.011l0 0c-0.003-0.003-0.005-0.006-0.007-0.010l-0-0-0.003-0.014v-0.104h0.431v0.515c-0.105 0.072-0.232 0.12-0.368 0.135l-0.004 0c-0.056 0.007-0.108 0.007-0.163 0.007-0.003 0-0.006 0-0.010 0-0.19 0-0.364-0.071-0.495-0.189l0.001 0.001c-0.12-0.117-0.195-0.281-0.195-0.462 0-0.009 0-0.018 0.001-0.026l-0 0.001c0-0.094 0.017-0.191 0.049-0.278 0.068-0.164 0.2-0.289 0.364-0.347l0.004-0.001c0.090-0.035 0.194-0.055 0.303-0.055 0.053 0 0.105 0.005 0.155 0.014l-0.005-0.001c0.132 0.022 0.247 0.078 0.342 0.157l-0.001-0.001-0.052 0.083c-0.004 0.007-0.010 0.013-0.017 0.017l-0 0c-0.007 0.004-0.016 0.007-0.026 0.007-0.001 0-0.001 0-0.002-0h0c-0.013-0-0.025-0.004-0.035-0.011l0 0-0.052-0.031c-0.088-0.048-0.193-0.077-0.305-0.077-0.005 0-0.011 0-0.016 0h0.001c-0.073 0-0.146 0.010-0.216 0.035-0.063 0.024-0.118 0.063-0.163 0.104-0.045 0.052-0.080 0.104-0.104 0.17-0.049 0.143-0.049 0.299 0 0.442 0.072 0.178 0.243 0.302 0.444 0.302 0.019 0 0.038-0.001 0.056-0.003l-0.002 0zM41.805 18.090h0.609v0.153h-0.797v-1.332h0.191l-0.007 1.183zM43.047 18.243h-0.191v-1.332h0.191v1.332zM43.757 16.918c0.010 0.003 0.021 0.014 0.028 0.024l0.814 1.005v-1.043h0.167v1.339h-0.097c-0.014 0-0.028 0-0.042-0.007-0.011-0.007-0.020-0.015-0.028-0.024l-0-0-0.814-1.005v1.037h-0.16v-1.332h0.097c0.010 0 0.024 0 0.035 0.007zM46.167 16.911v0.146h-0.675v0.442h0.546v0.139h-0.546v0.456h0.675v0.146h-0.87v-1.329h0.87zM26.191 8.678l8.466 2.278v7.972l-8.466-2.275v-7.976zM25.649 8v9.043l9.551 2.563v-9.040l-9.551-2.567z"></path>
      <path d="M30.769 23.805l-9.551-2.57v-9.040l9.551 2.57v9.040z"></path>
      <path d="M25.809 8.577l8.355 2.247-3.555 3.363-8.355-2.247 3.555-3.363zM25.649 8l-4.431 4.195 9.551 2.57 4.431-4.198-9.551-2.567zM31.304 23.297l3.896-3.687-3.896-1.050v4.737z"></path>
    </symbol>
    </defs>
</svg>
